<svg width="450" height="180" viewBox="0 0 450 180" fill="none" xmlns="http://www.w3.org/2000/svg">
<g clip-path="url(#clip0)">
<path d="M450 -18H0V230H450V-18Z" fill="#D9F8E7"/>
<rect y="134" width="450" height="46" fill="#B5F0CF"/>
<path d="M363.538 95.334C362.348 96.9721 362.117 99.1304 362.78 101.022C363.216 102.266 363.848 103.397 364.119 104.702C364.455 106.322 363.417 107.93 362.667 109.277C362.493 109.59 362.581 110.038 362.911 110.213C363.233 110.383 363.659 110.301 363.845 109.968C364.363 109.038 364.874 108.091 365.195 107.072C365.521 106.041 365.594 104.958 365.343 103.901C365.234 103.442 365.068 102.998 364.887 102.563C364.716 102.151 364.535 101.745 364.358 101.336C364.07 100.578 363.726 99.7028 363.72 98.8815C363.715 98.1269 363.954 97.3489 364.303 96.6854C364.425 96.4546 364.563 96.2355 364.716 96.0246C364.927 95.7343 364.776 95.2501 364.471 95.0888C364.117 94.9013 363.762 95.0239 363.538 95.334Z" fill="#93C8AB"/>
<path d="M367.928 95.334C366.739 96.9721 366.508 99.1304 367.171 101.022C367.607 102.266 368.239 103.397 368.509 104.702C368.846 106.322 367.808 107.93 367.057 109.277C366.884 109.59 366.972 110.038 367.302 110.213C367.624 110.383 368.05 110.301 368.236 109.968C368.753 109.038 369.264 108.091 369.586 107.072C369.911 106.041 369.985 104.958 369.734 103.901C369.625 103.442 369.459 102.998 369.278 102.563C369.107 102.151 368.926 101.745 368.749 101.336C368.461 100.578 368.117 99.7028 368.111 98.8815C368.106 98.1269 368.345 97.3489 368.694 96.6854C368.815 96.4546 368.954 96.2355 369.107 96.0246C369.317 95.7343 369.165 95.2501 368.862 95.0888C368.507 94.9013 368.153 95.0239 367.928 95.334Z" fill="#93C8AB"/>
<path d="M372.492 95.334C371.303 96.9721 371.072 99.1304 371.735 101.022C372.171 102.266 372.803 103.397 373.074 104.702C373.41 106.322 372.372 107.93 371.622 109.277C371.447 109.59 371.536 110.038 371.866 110.213C372.187 110.383 372.614 110.301 372.8 109.968C373.318 109.038 373.829 108.091 374.15 107.072C374.475 106.041 374.549 104.958 374.298 103.901C374.188 103.442 374.023 102.998 373.842 102.563C373.671 102.151 373.49 101.745 373.313 101.336C373.025 100.578 372.681 99.7028 372.675 98.8815C372.67 98.1269 372.909 97.3489 373.258 96.6854C373.38 96.4546 373.518 96.2355 373.671 96.0246C373.882 95.7343 373.73 95.2501 373.426 95.0888C373.072 94.9013 372.717 95.0239 372.492 95.334Z" fill="#93C8AB"/>
<path d="M381.017 125.221C381.017 124.055 381.017 122.888 381.017 121.721C384.371 121.721 387.725 121.721 391.078 121.721C393.007 121.721 394.572 123.288 394.572 125.221C394.572 130.403 394.572 135.584 394.572 140.765C394.572 141.731 394.181 142.606 393.55 143.239C392.918 143.871 392.043 144.265 391.078 144.265C387.725 144.265 384.371 144.265 381.017 144.265C381.017 143.098 381.017 141.931 381.017 140.764C384.371 140.764 387.725 140.764 391.078 140.764C391.078 135.583 391.078 130.402 391.078 125.22C387.725 125.221 384.371 125.221 381.017 125.221Z" fill="#5AEB9C"/>
<path d="M368.432 112.49C359.91 112.49 353.001 113.464 353.001 114.66C353.001 126.882 353.001 139.105 353.001 151.327C353.001 152.523 359.91 153.497 368.432 153.497C376.952 153.497 383.863 152.523 383.863 151.327C383.863 139.105 383.863 126.882 383.863 114.66C383.863 113.463 376.952 112.49 368.432 112.49Z" fill="#5AEB9C"/>
<path d="M381.413 115.835C378.667 116.435 373.878 116.832 368.43 116.832C362.982 116.832 358.193 116.435 355.448 115.835C358.194 115.235 362.982 114.838 368.43 114.838C373.879 114.838 378.668 115.235 381.413 115.835Z" fill="#385746"/>
<path d="M368.431 116.832C359.909 116.832 353 115.858 353 114.662C353 126.884 353 139.105 353 151.328C353 152.524 359.909 153.498 368.431 153.498C376.951 153.498 383.862 152.524 383.862 151.328C383.862 139.105 383.862 126.884 383.862 114.662C383.862 115.858 376.951 116.832 368.431 116.832Z" fill="#5AEB9C"/>
<path d="M383.862 151.326C383.862 139.104 383.862 126.882 383.862 114.66C383.862 114.86 383.669 115.053 383.309 115.237C380.846 120.693 370.236 142.272 353.001 150.647C353.001 150.873 353.001 151.099 353.001 151.325C353.001 152.522 359.91 153.495 368.432 153.495C376.951 153.496 383.861 152.523 383.862 151.326Z" fill="#3DDB85"/>
<path d="M332.252 152.708C332.252 154.442 332.252 156.176 332.252 157.91C332.252 159.958 333.908 161.618 335.953 161.618C361.644 161.618 387.337 161.618 413.028 161.618C413.028 161.081 413.028 160.544 413.028 160.007C412.713 160.007 412.399 160.007 412.085 160.007C412.085 156.875 412.085 153.743 412.085 150.611C412.399 150.611 412.713 150.611 413.028 150.611C413.028 150.074 413.028 149.537 413.028 149C387.337 149 361.644 149 335.953 149C333.908 149.001 332.252 150.662 332.252 152.708Z" fill="#318055"/>
<path d="M376.116 152.708C376.116 154.442 376.116 156.176 376.116 157.91C376.115 159.958 377.772 161.618 379.817 161.618C390.887 161.618 401.957 161.618 413.028 161.618C413.028 161.081 413.028 160.544 413.028 160.007C412.713 160.007 412.399 160.007 412.084 160.007C412.084 156.875 412.084 153.743 412.084 150.611C412.398 150.611 412.713 150.611 413.028 150.611C413.028 150.074 413.028 149.537 413.028 149C401.958 149 390.888 149 379.817 149C377.772 149.001 376.116 150.662 376.116 152.708Z" fill="#385746"/>
<path d="M380.499 160.008C391.028 160.008 401.556 160.008 412.085 160.008C412.085 156.876 412.085 153.743 412.085 150.611C401.556 150.611 391.028 150.611 380.499 150.611C378.966 150.611 377.724 151.856 377.723 153.393C377.723 154.671 377.723 155.949 377.723 157.228C377.723 158.763 378.966 160.008 380.499 160.008Z" fill="#F5FFFA"/>
<g clip-path="url(#clip1)">
<path d="M325 50.9969V129.25C325 136.947 318.703 143.246 311.004 143.246H138.996C131.297 143.246 125 136.949 125 129.25V50.9951C125 43.2981 131.297 36.9993 138.996 36.9993L311.004 36.9993C318.701 37.0011 325 43.2981 325 50.9969Z" fill="#93C8AB"/>
<path d="M140.321 42.2685L308.343 42.2685C314.043 42.2685 318.706 46.8987 318.706 52.5566V127.696C318.706 133.352 314.043 137.982 308.343 137.982H140.321C134.621 137.982 129.958 133.354 129.958 127.696V52.5548C129.958 46.8987 134.621 42.2685 140.321 42.2685Z" fill="#385746"/>
<path d="M129.958 52.5548L318.706 126.767V127.696C318.706 133.352 314.043 137.982 308.343 137.982H140.321C134.621 137.982 129.958 133.354 129.958 127.696V52.5548Z" fill="#446754"/>
<path d="M139.93 112.996V128.425C139.93 129.682 138.902 130.711 137.645 130.711H137.285C136.029 130.711 135 129.682 135 128.425V112.996C135 111.739 136.029 110.711 137.285 110.711H137.645C138.903 110.712 139.93 111.74 139.93 112.996Z" fill="#93C8AB"/>
<rect x="181" y="118.967" width="89" height="2.03226" rx="1.01613" fill="#3DDB85"/>
<rect x="181" y="118.967" width="23" height="2.03226" rx="1.01613" fill="#B5F0CF"/>
<rect x="200" y="115.918" width="8" height="8.12904" rx="4" fill="white"/>
<path fill-rule="evenodd" clip-rule="evenodd" d="M235.393 85.8364L217 75.2742L217 96.3984L235.393 85.8364ZM219.383 79.4172L230.562 85.8366L219.383 92.2561L219.383 79.4172Z" fill="white"/>
<rect x="299" y="53" width="8" height="2.03226" rx="1.01613" fill="#B5F0CF"/>
<rect x="145" y="53" width="16" height="2.03226" rx="1.01613" fill="#B5F0CF"/>
</g>
<path d="M65.1021 107.743C64.896 107.736 64.6936 107.728 64.4866 107.716C64.4677 107.716 64.4525 107.716 64.4327 107.713C57.3843 107.368 50.083 104.221 44.2987 98.4251C38.5027 92.6138 35.3591 85.2753 35.0226 78.1928C35.0118 77.9864 35.0028 77.7835 35.0001 77.5762C35.2026 77.5843 35.405 77.5915 35.611 77.6032C42.6792 77.944 50.0065 81.0904 55.8025 86.8981C61.6021 92.7094 64.7386 100.048 65.0787 107.126C65.0787 107.168 65.0832 107.211 65.0823 107.252C65.0904 107.418 65.094 107.579 65.1021 107.743Z" fill="#3DDB85"/>
<path d="M65.1019 107.744C64.8959 107.737 64.6934 107.729 64.4865 107.717C54.6652 97.8762 44.8438 88.035 35.0225 78.1948C35.0117 77.9883 35.0027 77.7855 35 77.5781C35.2024 77.5862 35.4049 77.5935 35.6109 77.6052C45.4332 87.4464 55.2554 97.2875 65.0785 107.128C65.0785 107.17 65.083 107.213 65.0821 107.254C65.0902 107.419 65.0938 107.58 65.1019 107.744Z" fill="#318055"/>
<path d="M68.151 83.0493C68.0098 83.0456 67.8685 83.0375 67.7228 83.0339C67.6688 83.0303 67.6193 83.0303 67.5662 83.0267C62.6834 82.7508 57.6396 80.561 53.6367 76.5492C49.5907 72.495 47.3981 67.3733 47.1606 62.4311C47.1525 62.2859 47.1498 62.1444 47.1453 62.002C47.2874 62.002 47.4278 62.0101 47.5735 62.0173C52.5058 62.2544 57.618 64.4523 61.6631 68.502C65.7092 72.5599 67.8982 77.6824 68.1348 82.6201C68.1348 82.6264 68.1348 82.6327 68.1348 82.639C68.1429 82.7743 68.1465 82.9122 68.151 83.0493Z" fill="#3DDB85"/>
<path d="M68.151 83.0482C68.0098 83.0446 67.8685 83.0365 67.7228 83.0329C67.6706 82.9806 67.6184 82.9283 67.5662 82.876C60.7643 76.0604 53.9624 69.2448 47.1606 62.4291C47.1525 62.284 47.1498 62.1424 47.1453 62C47.2874 62 47.4278 62.0081 47.5735 62.0153C54.4276 68.8832 61.2817 75.7511 68.1357 82.6191C68.1357 82.6254 68.1357 82.6317 68.1357 82.638C68.1429 82.7732 68.1465 82.9112 68.151 83.0482Z" fill="#318055"/>
<path d="M90.7674 92.6074C90.7638 92.7111 90.7592 92.8139 90.7521 92.9175C90.5838 96.4696 89.0057 100.153 86.0987 103.066C83.2178 105.952 79.5919 107.526 76.0848 107.725C76.047 107.729 76.0048 107.733 75.9661 107.733C75.8635 107.737 75.7627 107.742 75.6602 107.745C75.6602 107.642 75.6683 107.539 75.6719 107.435C75.6719 107.433 75.6719 107.432 75.6719 107.431C75.8401 103.879 77.4137 100.2 80.3252 97.2864C83.2331 94.369 86.9076 92.7922 90.4569 92.62C90.5613 92.6155 90.6657 92.6119 90.7674 92.6074Z" fill="#3DDB85"/>
<path d="M90.7683 92.6074C90.7647 92.7111 90.7602 92.8139 90.753 92.9175C85.8243 97.8562 80.8957 102.795 75.9679 107.733C75.8653 107.736 75.7646 107.741 75.662 107.744C75.662 107.641 75.6701 107.538 75.6737 107.434C75.6746 107.432 75.6764 107.431 75.6773 107.431C80.6041 102.494 85.5319 97.556 90.4588 92.6191C90.5622 92.6155 90.6666 92.6119 90.7683 92.6074Z" fill="#318055"/>
<path d="M97.3433 66.8633C97.3397 67.0319 97.3316 67.2005 97.3244 67.369C97.041 73.211 94.4507 79.2675 89.6723 84.0565C84.9353 88.7995 78.9674 91.3914 73.1984 91.7133C73.1373 91.7169 73.0806 91.7205 73.0185 91.725C72.8502 91.7322 72.682 91.7403 72.5146 91.7439C72.5146 91.6754 72.5182 91.6096 72.5227 91.5411C72.5263 91.4419 72.5299 91.3382 72.5344 91.2345C72.8098 85.3962 75.4 79.3442 80.183 74.5516C84.9659 69.759 91.0075 67.1635 96.8368 66.884C97.0068 66.875 97.1715 66.8669 97.3433 66.8633Z" fill="#3DDB85"/>
<path d="M97.3433 66.8633C97.3397 67.0319 97.3316 67.2005 97.3244 67.369C89.2224 75.4874 81.1205 83.6057 73.0185 91.7241C72.8502 91.7313 72.682 91.7394 72.5146 91.743C72.5146 91.6745 72.5182 91.6087 72.5227 91.5402C72.5263 91.441 72.5299 91.3373 72.5344 91.2336C80.6355 83.1162 88.7357 74.9997 96.8368 66.8822C97.0068 66.875 97.1715 66.8669 97.3433 66.8633Z" fill="#318055"/>
<path d="M73.1975 91.5391C73.1975 101.305 73.1975 111.071 73.1975 120.836C72.9698 120.836 72.7413 120.836 72.5137 120.836C72.5137 111.138 72.5137 101.44 72.5137 91.7419C72.5137 91.6734 72.5173 91.6076 72.5218 91.5391C72.7467 91.5391 72.9716 91.5391 73.1975 91.5391Z" fill="#318055"/>
<path d="M68.151 83.0489C68.151 95.6452 68.151 108.241 68.151 120.837C67.9557 120.837 67.7614 120.837 67.5662 120.837C67.5662 108.104 67.5662 95.372 67.5662 82.6387C67.756 82.6387 67.9458 82.6387 68.1357 82.6387C68.1429 82.7739 68.1465 82.9118 68.151 83.0489Z" fill="#318055"/>
<path d="M76.0858 107.43C76.0858 111.899 76.0858 116.368 76.0858 120.836C75.9445 120.836 75.8032 120.836 75.662 120.836C75.662 116.472 75.662 112.108 75.662 107.744C75.662 107.642 75.6701 107.538 75.6737 107.434C75.6737 107.432 75.6737 107.431 75.6737 107.431C75.8104 107.43 75.9481 107.43 76.0858 107.43Z" fill="#318055"/>
<path d="M65.1018 107.744C65.1018 112.109 65.1018 116.473 65.1018 120.836C64.8787 120.836 64.6565 120.836 64.4333 120.836C64.4333 116.309 64.4333 111.781 64.4333 107.254C64.6502 107.254 64.8661 107.254 65.0829 107.254C65.0901 107.419 65.0937 107.58 65.1018 107.744Z" fill="#318055"/>
<path d="M81.9735 157.034C74.2647 157.034 66.5559 157.034 58.8471 157.034C55.3355 144.913 51.8239 132.794 48.3123 120.674C63.0443 120.674 77.7763 120.674 92.5083 120.674C88.9967 132.794 85.4851 144.914 81.9735 157.034Z" fill="#3DDB85"/>
<path d="M86.1472 159.706C75.6556 159.706 65.1639 159.706 54.6732 159.706C54.6732 158.49 54.6732 157.274 54.6732 156.057C65.1648 156.057 75.6565 156.057 86.1472 156.057C86.1472 157.273 86.1472 158.49 86.1472 159.706Z" fill="#318055"/>
</g>
<defs>
<clipPath id="clip0">
<rect width="450" height="180" rx="6" fill="white"/>
</clipPath>
<clipPath id="clip1">
<rect width="106.245" height="200" fill="white" transform="translate(125 143.246) rotate(-90)"/>
</clipPath>
</defs>
</svg>
