<svg width="450" height="180" viewBox="0 0 450 180" fill="none" xmlns="http://www.w3.org/2000/svg">
<g clip-path="url(#clip0)">
<path d="M450 -18H0V230H450V-18Z" fill="#F7F7F7"/>
<rect y="134" width="450" height="46" fill="#E6E6E6"/>
<path d="M61.9201 113.438C53.6809 113.438 47 114.377 47 115.532C47 127.323 47 139.114 47 150.906C47 152.06 53.6796 153 61.9201 153C70.1581 153 76.8402 152.06 76.8402 150.906C76.8402 139.114 76.8402 127.323 76.8402 115.532C76.839 114.377 70.1581 113.438 61.9201 113.438Z" fill="#F2BF5E"/>
<path d="M47 115.534C47 116.689 53.6796 117.628 61.9189 117.628C70.1581 117.628 76.839 116.689 76.839 115.534C76.839 114.378 70.1581 113.439 61.9189 113.439C53.6796 113.439 47 114.378 47 115.534Z" fill="#ACACAC"/>
<path d="M74.4721 116.663C71.8165 117.242 67.1864 117.625 61.9189 117.625C56.6514 117.625 52.0213 117.242 49.3669 116.663C52.0213 116.085 56.6514 115.701 61.9189 115.701C67.1864 115.701 71.8177 116.085 74.4721 116.663Z" fill="#555555"/>
<path d="M63.7596 133.876C63.7584 133.872 63.7559 133.867 63.7546 133.863C62.9198 134.197 62.085 134.531 61.2502 134.863C61.2515 134.867 61.254 134.872 61.2552 134.875C61.3927 135.221 61.6589 135.478 61.9751 135.614C62.2925 135.75 62.6611 135.765 63.0073 135.626C63.6996 135.351 64.0358 134.567 63.7596 133.876Z" fill="#969696"/>
<path d="M62.9036 134.202C58.2909 122.652 53.6783 111.103 49.0657 99.5527C48.5146 99.7726 47.9635 99.9926 47.4124 100.212C52.025 111.763 56.6376 123.312 61.2502 134.862C61.8013 134.642 62.3525 134.422 62.9036 134.202Z" fill="#969696"/>
<path d="M62.9035 134.202C58.2909 122.652 53.6783 111.103 49.0657 99.5528C49.3494 99.439 49.633 99.3266 49.918 99.2129C54.5306 110.763 59.1432 122.312 63.7558 133.862C63.4709 133.975 63.1872 134.089 62.9035 134.202Z" fill="#717171"/>
<path d="M62.9348 131.809C62.1 132.142 61.2652 132.475 60.4304 132.808C60.7041 133.493 60.9765 134.176 61.2502 134.861C62.085 134.527 62.9198 134.194 63.7546 133.861C63.4822 133.177 63.2085 132.492 62.9348 131.809Z" fill="#969696"/>
<path d="M62.9035 134.201C62.6299 133.517 62.3574 132.833 62.0837 132.148C62.3674 132.035 62.6511 131.922 62.9348 131.809C63.2085 132.493 63.4809 133.177 63.7546 133.861C63.4709 133.974 63.1872 134.088 62.9035 134.201Z" fill="#969696"/>
<path d="M49.9168 99.2124C49.5394 98.8726 49.162 98.5327 48.7833 98.1941C48.4059 97.8543 48.0285 97.5144 47.6498 97.1758C47.6098 97.6818 47.5698 98.1879 47.5311 98.6952C47.4911 99.2012 47.4511 99.7072 47.4111 100.215C48.2472 99.8784 49.082 99.5448 49.9168 99.2124Z" fill="#969696"/>
<path d="M48.3758 97.8261C48.1346 97.6087 47.8921 97.3912 47.6509 97.1738C47.6259 97.4974 47.5997 97.8211 47.5747 98.1459C47.8421 98.0397 48.1083 97.9335 48.3758 97.8261Z" fill="#4D4D4D"/>
<path d="M63.3822 135.401C63.2222 135.002 63.0635 134.602 62.9036 134.203C63.1872 134.089 63.4709 133.977 63.7559 133.863C63.7571 133.867 63.7596 133.872 63.7609 133.876C63.9808 134.427 63.8108 135.037 63.3822 135.401Z" fill="#717171"/>
<path d="M49.0658 99.5537C48.8359 98.9789 48.6059 98.4029 48.376 97.8281C48.5122 97.9506 48.6484 98.073 48.7846 98.1955C49.162 98.5353 49.5394 98.8752 49.9181 99.2138C49.6332 99.3263 49.3495 99.44 49.0658 99.5537Z" fill="#717171"/>
<path d="M63.4346 135.057C63.4346 135.052 63.4346 135.048 63.4346 135.043C62.5361 135.043 61.6363 135.043 60.7378 135.043C60.7378 135.048 60.7378 135.052 60.7378 135.057C60.7378 135.429 60.889 135.766 61.1327 136.01C61.3764 136.254 61.7138 136.405 62.0862 136.405C62.831 136.405 63.4346 135.801 63.4346 135.057Z" fill="#E6DBDC"/>
<path d="M62.5175 135.042C62.5162 122.606 62.515 110.169 62.5125 97.7324C61.9189 97.7324 61.3265 97.7324 60.7329 97.7324C60.7342 110.169 60.7354 122.606 60.7379 135.042C61.3303 135.042 61.9239 135.042 62.5175 135.042Z" fill="#969696"/>
<path d="M62.5175 135.042C62.5162 122.606 62.515 110.169 62.5125 97.7324C62.8186 97.7324 63.1236 97.7324 63.4297 97.7324C63.431 110.169 63.4322 122.606 63.4347 135.042C63.1286 135.042 62.8224 135.042 62.5175 135.042Z" fill="#717171"/>
<path d="M63.4334 132.832C62.5349 132.832 61.6351 132.832 60.7366 132.832C60.7366 133.569 60.7366 134.305 60.7366 135.042C61.6351 135.042 62.5349 135.042 63.4334 135.042C63.4334 134.305 63.4334 133.568 63.4334 132.832Z" fill="#D94A56"/>
<path d="M62.5176 135.042C62.5176 134.305 62.5176 133.569 62.5176 132.832C62.8238 132.832 63.1287 132.832 63.4348 132.832C63.4348 133.569 63.4348 134.305 63.4348 135.042C63.1287 135.042 62.8225 135.042 62.5176 135.042Z" fill="#C14251"/>
<path d="M63.4298 97.7333C63.2048 97.2785 62.9799 96.8225 62.7549 96.3676C62.53 95.9116 62.305 95.4568 62.0801 95.002C61.8551 95.458 61.6302 95.9128 61.4065 96.3689C61.1816 96.8237 60.9566 97.2798 60.7329 97.7358C61.6314 97.7333 62.5312 97.7333 63.4298 97.7333Z" fill="#969696"/>
<path d="M62.5124 95.8734C62.3687 95.5823 62.225 95.2911 62.0813 95C61.9376 95.2911 61.7939 95.5823 61.6501 95.8746C61.9376 95.8734 62.225 95.8734 62.5124 95.8734Z" fill="#4D4D4D"/>
<path d="M62.5176 136.334C62.5176 135.904 62.5176 135.473 62.5176 135.043C62.8238 135.043 63.1287 135.043 63.4348 135.043C63.4348 135.047 63.4348 135.052 63.4348 135.057C63.4348 135.65 63.0499 136.154 62.5176 136.334Z" fill="#C9C0C0"/>
<path d="M62.5125 97.733C62.5125 97.1132 62.5125 96.4935 62.5125 95.875C62.5937 96.0387 62.6749 96.2036 62.7549 96.3673C62.9798 96.8221 63.2048 97.2782 63.4297 97.733C63.1248 97.733 62.8186 97.733 62.5125 97.733Z" fill="#717171"/>
<path d="M64.3968 134.199C64.2143 134.154 64.0319 134.109 63.8482 134.064C63.292 133.926 62.7247 134.268 62.5885 134.824C62.451 135.381 62.7934 135.948 63.3495 136.084C63.532 136.129 63.7144 136.174 63.8981 136.219C64.4543 136.356 65.0216 136.013 65.1578 135.458C65.2966 134.903 64.9529 134.336 64.3968 134.199Z" fill="#8496A5"/>
<path d="M63.8982 136.22C63.807 136.198 63.7157 136.175 63.6245 136.153C63.7907 135.479 63.9569 134.806 64.1231 134.131C64.2144 134.153 64.3056 134.176 64.3968 134.198C64.9529 134.336 65.2954 134.903 65.1579 135.458C65.0217 136.014 64.4543 136.357 63.8982 136.22Z" fill="#7A8C99"/>
<path d="M73.241 97.1885C73.0797 97.1485 72.9185 97.1085 72.7573 97.0698C73.0785 96.4625 73.3984 95.8553 73.7196 95.248C73.7208 95.934 73.7221 96.6212 73.7233 97.3084C73.5621 97.2685 73.4022 97.2285 73.241 97.1885Z" fill="#4D4D4D"/>
<path d="M73.7233 97.3091C73.7233 97.118 73.7221 96.9268 73.7221 96.7369C73.4896 96.6794 73.2572 96.6219 73.0248 96.5645C72.936 96.7331 72.8461 96.9018 72.7573 97.0705C73.0797 97.1492 73.4009 97.2292 73.7233 97.3091Z" fill="#4D4D4D"/>
<path d="M73.7583 97.3167C73.2235 105.225 65.3479 135.632 65.3479 135.632C64.8468 135.509 64.3456 135.385 63.8433 135.261C63.3421 135.137 62.841 135.014 62.3386 134.89C62.3386 134.89 69.5144 104.31 72.7198 97.0605C73.0685 97.1455 73.4134 97.2305 73.7583 97.3167Z" fill="#969696"/>
<path d="M65.3491 135.632C64.848 135.509 64.3469 135.385 63.8445 135.261C66.9762 122.57 70.108 109.879 73.2397 97.1895C73.4121 97.2319 73.5846 97.2744 73.7583 97.3169C73.2234 105.225 65.3491 135.632 65.3491 135.632Z" fill="#717171"/>
<path d="M69.4793 118.908C68.4746 118.66 67.4698 118.411 66.4663 118.164C64.2106 126.927 62.3411 134.888 62.3411 134.888C63.3433 135.136 64.3468 135.383 65.3491 135.631C65.3491 135.632 67.3998 127.714 69.4793 118.908Z" fill="#C7CDD1"/>
<path d="M65.3491 135.633C64.848 135.509 64.3469 135.385 63.8445 135.261C65.2204 129.686 66.5963 124.112 67.9722 118.537C68.4746 118.661 68.977 118.785 69.4794 118.908C67.3986 127.715 65.3491 135.633 65.3491 135.633Z" fill="#B6B9BA"/>
<path d="M67.0611 122.228C66.7187 122.143 66.3713 122.353 66.2863 122.695C65.394 126.311 64.5018 129.928 63.6082 133.544C63.5233 133.888 63.7332 134.234 64.0756 134.319C64.4193 134.404 64.7655 134.194 64.8504 133.852C65.7427 130.236 66.635 126.619 67.5273 123.003C67.6135 122.659 67.4048 122.312 67.0611 122.228Z" fill="#8496A5"/>
<path d="M64.0784 134.318C65.0731 130.287 66.0679 126.257 67.0626 122.227C67.4051 122.312 67.615 122.658 67.53 123.001C66.6377 126.617 65.7455 130.235 64.8532 133.851C64.767 134.193 64.4208 134.402 64.0784 134.318Z" fill="#7A8C99"/>
<path d="M61.9201 117.627C53.6809 117.627 47 116.688 47 115.533C47 127.325 47 139.115 47 150.906C47 152.061 53.6796 153 61.9201 153C70.1581 153 76.8402 152.061 76.8402 150.906C76.8402 139.115 76.8402 127.325 76.8402 115.533C76.839 116.688 70.1581 117.627 61.9201 117.627Z" fill="#BEBEBE"/>
<path d="M76.2229 116.063C73.2973 122.35 63.1223 142.007 47 149.996C47 150.277 47 150.559 47 150.84C47 151.994 53.6771 152.933 61.9139 152.934C62.3025 152.934 62.6887 152.931 63.0711 152.928C70.7717 152.845 76.8402 151.941 76.8402 150.84C76.8402 139.048 76.8402 127.258 76.8402 115.467C76.839 115.673 76.6228 115.873 76.2229 116.063Z" fill="#ACACAC"/>
<path d="M24.2524 152.708C24.2524 154.442 24.2524 156.176 24.2524 157.91C24.2524 159.958 25.9079 161.618 27.953 161.618C53.6445 161.618 79.3369 161.618 105.028 161.618C105.028 161.081 105.028 160.544 105.028 160.007C104.713 160.007 104.399 160.007 104.085 160.007C104.085 156.875 104.085 153.743 104.085 150.611C104.399 150.611 104.713 150.611 105.028 150.611C105.028 150.074 105.028 149.537 105.028 149C79.3369 149 53.6445 149 27.953 149C25.9079 149.001 24.2524 150.662 24.2524 152.708Z" fill="#969696"/>
<path d="M68.1162 152.708C68.1162 154.442 68.1162 156.176 68.1162 157.91C68.1153 159.958 69.7717 161.618 71.8168 161.618C82.8869 161.618 93.9571 161.618 105.028 161.618C105.028 161.081 105.028 160.544 105.028 160.007C104.713 160.007 104.399 160.007 104.084 160.007C104.084 156.875 104.084 153.743 104.084 150.611C104.398 150.611 104.713 150.611 105.028 150.611C105.028 150.074 105.028 149.537 105.028 149C93.958 149 82.8878 149 71.8168 149C69.7717 149.001 68.1162 150.662 68.1162 152.708Z" fill="#717171"/>
<path d="M72.499 160.008C83.0275 160.008 93.556 160.008 104.085 160.008C104.085 156.876 104.085 153.743 104.085 150.611C93.556 150.611 83.0275 150.611 72.499 150.611C70.9659 150.611 69.7243 151.856 69.7234 153.393C69.7234 154.671 69.7234 155.949 69.7234 157.228C69.7234 158.763 70.9659 160.008 72.499 160.008Z" fill="white"/>
<g clip-path="url(#clip1)">
<path d="M325 50.9969V129.25C325 136.947 318.703 143.246 311.004 143.246H138.996C131.297 143.246 125 136.949 125 129.25V50.9951C125 43.2981 131.297 36.9993 138.996 36.9993L311.004 36.9993C318.701 37.0011 325 43.2981 325 50.9969Z" fill="#AEAEAE"/>
<path d="M140.321 42.2685L308.344 42.2685C314.043 42.2685 318.706 46.8987 318.706 52.5566V127.696C318.706 133.352 314.043 137.982 308.344 137.982H140.321C134.621 137.982 129.958 133.354 129.958 127.696V52.5548C129.958 46.8987 134.621 42.2685 140.321 42.2685Z" fill="#4D4D4D"/>
<path d="M129.958 52.5548L318.706 126.767V127.696C318.706 133.352 314.043 137.982 308.344 137.982H140.321C134.621 137.982 129.958 133.354 129.958 127.696V52.5548Z" fill="#555555"/>
<path d="M136.205 74.4193V105.825C136.205 108.383 134.112 110.477 131.553 110.477H130.822C128.263 110.477 126.17 108.383 126.17 105.825V74.4193C126.17 71.8609 128.263 69.7673 130.822 69.7673H131.553C134.114 69.7691 136.205 71.8627 136.205 74.4193Z" fill="#AEAEAE"/>
<rect x="181" y="118.967" width="89" height="2.03226" rx="1.01613" fill="#ACACAC"/>
<rect x="181" y="118.967" width="23" height="2.03226" rx="1.01613" fill="#F0F0F0"/>
<rect x="200" y="115.918" width="8" height="8.12904" rx="4" fill="white"/>
<path fill-rule="evenodd" clip-rule="evenodd" d="M235.393 85.8364L217 75.2742L217 96.3984L235.393 85.8364ZM219.383 79.4172L230.562 85.8366L219.383 92.2561L219.383 79.4172Z" fill="white"/>
<rect x="299" y="53" width="8" height="2.03226" rx="1.01613" fill="#F0F0F0"/>
<rect x="313" y="112" width="40" height="2.03226" rx="1.01613" transform="rotate(-90 313 112)" fill="#AEAEAE"/>
<rect x="145" y="53" width="16" height="2.03226" rx="1.01613" fill="#F0F0F0"/>
</g>
<path d="M369.354 65.7363C378.443 81.7513 383.755 99.8922 384.739 118.281C384.401 122.012 384.062 125.746 383.724 129.478C380.234 121.745 376.738 113.996 374.062 105.945C371.386 97.8934 369.535 89.5038 369.435 81.0218C369.374 75.9233 369.943 70.8018 369.354 65.7363Z" fill="#ACACAC"/>
<path d="M374.696 102.886C379.064 111.426 382.682 120.459 384.107 129.945C381.515 126.964 378.925 123.983 376.335 121C366.458 108.917 360.786 93.4598 360.505 77.8574C365.197 86.2206 370.329 94.3461 374.696 102.886Z" fill="#797979"/>
<path d="M382.165 60C385.033 68.5678 391.321 75.6585 394.256 84.2032C396.474 90.6699 396.666 97.6995 395.733 104.475C394.804 111.249 392.792 117.823 390.692 124.331C387.517 126.047 384.343 127.762 381.168 129.479C381.391 120.109 381.609 110.714 380.719 101.385C380.052 94.4034 378.763 87.4795 378.471 80.4714C378.179 73.4649 378.95 66.2324 382.165 60Z" fill="#797979"/>
<path d="M395.436 91.3571C397.379 86.1084 400.237 81.2443 403.376 76.6113C403.279 85.029 402.931 93.4763 401.445 101.762C399.956 110.048 397.29 118.201 392.828 125.34C392.494 125.896 392.161 126.452 391.829 127.007C391.52 114.991 391.261 102.632 395.436 91.3571Z" fill="#D2D2D2"/>
<path d="M371.356 156.874C380.398 156.874 389.439 156.874 398.482 156.874C402.601 142.689 406.72 128.505 410.838 114.32C393.559 114.32 376.279 114.32 359 114.32C363.119 128.505 367.237 142.689 371.356 156.874Z" fill="#ACACAC"/>
<path d="M366.46 160C378.765 160 391.072 160 403.377 160C403.377 158.576 403.377 157.153 403.377 155.73C391.07 155.73 378.765 155.73 366.46 155.73C366.46 157.155 366.46 158.578 366.46 160Z" fill="#717171"/>
</g>
<defs>
<clipPath id="clip0">
<rect width="450" height="180" rx="6" fill="white"/>
</clipPath>
<clipPath id="clip1">
<rect width="106.245" height="200" fill="white" transform="translate(125 143.246) rotate(-90)"/>
</clipPath>
</defs>
</svg>
