<svg width="450" height="180" viewBox="0 0 450 180" fill="none" xmlns="http://www.w3.org/2000/svg">
<g clip-path="url(#clip0)">
<path d="M450 -18H0V230H450V-18Z" fill="#FCFAEB"/>
<rect y="134" width="450" height="46" fill="#EEEBD3"/>
<path d="M48.5377 99.334C47.3482 100.972 47.117 103.13 47.7801 105.022C48.2165 106.266 48.8481 107.397 49.1189 108.702C49.4554 110.322 48.4171 111.93 47.6667 113.277C47.4931 113.59 47.5813 114.038 47.9115 114.213C48.2336 114.383 48.6591 114.301 48.8454 113.968C49.3627 113.038 49.8737 112.091 50.1949 111.072C50.5206 110.041 50.5944 108.958 50.3434 107.901C50.2336 107.442 50.0681 106.998 49.8872 106.563C49.7163 106.151 49.5355 105.745 49.3582 105.336C49.0703 104.578 48.7266 103.703 48.7203 102.882C48.7149 102.127 48.9542 101.349 49.3033 100.685C49.4248 100.455 49.5633 100.236 49.7163 100.025C49.9268 99.7343 49.7757 99.2501 49.4716 99.0888C49.1171 98.9013 48.7626 99.0239 48.5377 99.334Z" fill="#D1D1D1"/>
<path d="M52.9283 99.334C51.7389 100.972 51.5076 103.13 52.1707 105.022C52.6071 106.266 53.2387 107.397 53.5095 108.702C53.846 110.322 52.8077 111.93 52.0574 113.277C51.8837 113.59 51.9719 114.038 52.3021 114.213C52.6242 114.383 53.0497 114.301 53.236 113.968C53.7533 113.038 54.2644 112.091 54.5856 111.072C54.9113 110.041 54.985 108.958 54.734 107.901C54.6252 107.442 54.4587 106.998 54.2779 106.563C54.1069 106.151 53.9261 105.745 53.7488 105.336C53.4609 104.578 53.1172 103.703 53.1109 102.882C53.1055 102.127 53.3449 101.349 53.6939 100.685C53.8154 100.455 53.954 100.236 54.1069 100.025C54.3175 99.7343 54.1654 99.2501 53.8622 99.0888C53.5068 98.9013 53.1532 99.0239 52.9283 99.334Z" fill="#D1D1D1"/>
<path d="M57.4925 99.334C56.3031 100.972 56.0718 103.13 56.7349 105.022C57.1713 106.266 57.8029 107.397 58.0737 108.702C58.4102 110.322 57.3719 111.93 56.6216 113.277C56.447 113.59 56.5361 114.038 56.8663 114.213C57.1875 114.383 57.6139 114.301 57.8002 113.968C58.3175 113.038 58.8286 112.091 59.1498 111.072C59.4755 110.041 59.5493 108.958 59.2982 107.901C59.1885 107.442 59.0229 106.998 58.8421 106.563C58.6711 106.151 58.4903 105.745 58.313 105.336C58.0251 104.578 57.6814 103.703 57.6751 102.882C57.6697 102.127 57.9091 101.349 58.2582 100.685C58.3796 100.455 58.5182 100.236 58.6711 100.025C58.8817 99.7343 58.7296 99.2501 58.4264 99.0888C58.0719 98.9013 57.7174 99.0239 57.4925 99.334Z" fill="#D1D1D1"/>
<path d="M66.0173 129.221C66.0173 128.055 66.0173 126.888 66.0173 125.721C69.3715 125.721 72.7248 125.721 76.078 125.721C78.007 125.721 79.5716 127.288 79.5716 129.221C79.5716 134.403 79.5716 139.584 79.5716 144.765C79.5716 145.731 79.1811 146.606 78.5495 147.239C77.9179 147.871 77.0425 148.265 76.078 148.265C72.7248 148.265 69.3706 148.265 66.0173 148.265C66.0173 147.098 66.0173 145.931 66.0173 144.764C69.3715 144.764 72.7248 144.764 76.078 144.764C76.078 139.583 76.078 134.402 76.078 129.22C72.7248 129.221 69.3715 129.221 66.0173 129.221Z" fill="#FFE61F"/>
<path d="M53.4321 116.49C44.9099 116.49 38.001 117.464 38.001 118.66C38.001 130.882 38.001 143.105 38.001 155.327C38.001 156.523 44.9099 157.497 53.4321 157.497C61.9524 157.497 68.8632 156.523 68.8632 155.327C68.8632 143.105 68.8632 130.882 68.8632 118.66C68.8632 117.463 61.9524 116.49 53.4321 116.49Z" fill="#FFE61F"/>
<path d="M66.4132 119.835C63.6673 120.435 58.8781 120.832 53.4303 120.832C47.9816 120.832 43.1933 120.435 40.4482 119.835C43.1942 119.235 47.9816 118.838 53.4303 118.838C58.879 118.838 63.6682 119.235 66.4132 119.835Z" fill="#5C584E"/>
<path d="M53.4311 120.832C44.9089 120.832 38 119.858 38 118.662C38 130.884 38 143.105 38 155.328C38 156.524 44.9089 157.498 53.4311 157.498C61.9514 157.498 68.8622 156.524 68.8622 155.328C68.8622 143.105 68.8622 130.884 68.8622 118.662C68.8622 119.858 61.9514 120.832 53.4311 120.832Z" fill="#FFE61F"/>
<path opacity="0.48" d="M68.8623 155.326C68.8623 143.104 68.8623 130.882 68.8623 118.66C68.8623 118.86 68.6688 119.053 68.3089 119.237C65.8464 124.693 55.236 146.272 38.001 154.647C38.001 154.873 38.001 155.099 38.001 155.325C38.001 156.522 44.9099 157.495 53.4321 157.495C61.9515 157.496 68.8614 156.523 68.8623 155.326Z" fill="#FFB800"/>
<g clip-path="url(#clip1)">
<path d="M316.006 146.236V44.2135C316.006 38.5717 311.437 34 305.798 34H144.536C138.898 34 134.329 38.5717 134.329 44.2135V146.236H316.006Z" fill="#5C584E"/>
<path d="M140.229 43.6937C140.229 41.8317 141.738 40.3223 143.6 40.3223H306.271C308.133 40.3223 309.643 41.8317 309.643 43.6937V137.672H140.229V43.6937Z" fill="#5C584E"/>
<path d="M120 144.387V146.893C120 149.709 125.113 152 131.418 152H318.875C325.18 152 330.293 149.709 330.293 146.893V144.387H120Z" fill="white"/>
<path d="M226.084 36.8255C226.084 37.3418 225.662 37.7642 225.146 37.7642C224.63 37.7642 224.208 37.3418 224.208 36.8255C224.208 36.3092 224.63 35.8867 225.146 35.8867C225.662 35.8867 226.084 36.2998 226.084 36.8255Z" fill="#D4D4D4"/>
<rect x="181" y="115.967" width="89" height="2.03226" rx="1.01613" fill="#FFE61F"/>
<rect x="181" y="115.967" width="23" height="2.03226" rx="1.01613" fill="#F0F0F0"/>
<rect x="200" y="112.918" width="8" height="8.12904" rx="4" fill="white"/>
<path fill-rule="evenodd" clip-rule="evenodd" d="M235.393 82.8364L217 72.2742L217 93.3984L235.393 82.8364ZM219.383 76.4172L230.562 82.8366L219.383 89.2561L219.383 76.4172Z" fill="white"/>
<rect x="148" y="47" width="16" height="2.03226" rx="1.01613" fill="#F0F0F0"/>
<rect x="294" y="47" width="8" height="2.03226" rx="1.01613" fill="#F0F0F0"/>
</g>
<path d="M412.539 105.49C402.467 92.4076 392.393 79.3253 382.321 66.2441C381.225 67.0878 380.128 67.9314 379.033 68.7738C389.36 82.1881 399.689 95.6024 410.017 109.017C405.362 124.291 400.708 139.564 396.053 154.839C397.377 155.241 398.7 155.644 400.022 156.047C404.389 141.716 408.756 127.385 413.123 113.054C413.619 111.43 414.113 109.804 414.609 108.18C413.92 107.284 413.229 106.387 412.539 105.49Z" fill="#FFD18C"/>
<path d="M361.139 92.5116C354.457 92.5116 349.041 87.0962 349.041 80.4159C349.041 73.7357 354.457 68.3203 361.139 68.3203C367.82 68.3203 373.236 73.7357 373.236 80.4159C373.236 87.0962 367.82 92.5116 361.139 92.5116Z" fill="#FFE61F"/>
<path d="M357.337 84.218C353.99 80.8722 353.99 75.4465 357.337 72.1006C361.535 67.9032 365.732 63.7068 369.93 59.5094C373.277 56.1635 378.703 56.1635 382.049 59.5094C385.396 62.8552 385.396 68.2809 382.049 71.6267C377.851 75.8242 373.654 80.0205 369.456 84.218C366.11 87.5638 360.683 87.5638 357.337 84.218Z" fill="#FDA92B"/>
<path d="M373.154 68.4025C363.999 59.2486 349.156 59.2486 340 68.4025C351.051 79.4519 362.103 90.5013 373.154 101.551C382.309 92.3969 382.309 77.5563 373.154 68.4025Z" fill="#FDA92B"/>
<path d="M424.624 157C407.285 157 389.946 157 372.608 157C372.608 155.617 372.608 154.234 372.608 152.852C389.946 152.852 407.285 152.852 424.624 152.852C424.624 154.234 424.624 155.617 424.624 157Z" fill="#FDA92B"/>
</g>
<defs>
<clipPath id="clip0">
<rect width="450" height="180" rx="6" fill="white"/>
</clipPath>
<clipPath id="clip1">
<rect width="210.293" height="118" fill="white" transform="translate(120 34)"/>
</clipPath>
</defs>
</svg>
