<svg width="450" height="180" viewBox="0 0 450 180" fill="none" xmlns="http://www.w3.org/2000/svg">
<g clip-path="url(#clip0)">
<path d="M450 -18H0V230H450V-18Z" fill="#F4FBFF"/>
<rect y="134" width="450" height="46" fill="#B1E2FF"/>
<path d="M69.3538 65.7372C78.443 81.7522 83.7552 99.893 84.7391 118.281C84.4007 122.013 84.0623 125.747 83.7239 129.479C80.2341 121.746 76.7377 113.997 74.0618 105.945C71.3859 97.8942 69.5353 89.5047 69.4346 81.0226C69.3736 75.9242 69.9431 70.8026 69.3538 65.7372Z" fill="#3BAEFF"/>
<path d="M74.6956 102.885C79.0636 111.425 82.6821 120.458 84.1068 129.944C81.515 126.963 78.9249 123.982 76.3348 121C66.4582 108.916 60.786 93.459 60.5054 77.8567C65.1969 86.2199 70.3292 94.3454 74.6956 102.885Z" fill="#0071B7"/>
<path d="M82.1653 60C85.0328 68.5678 91.3207 75.6585 94.2558 84.2032C96.4745 90.6699 96.666 97.6995 95.7333 104.475C94.8039 111.249 92.7916 117.823 90.6917 124.331C87.5173 126.047 84.3428 127.762 81.1683 129.479C81.3912 120.109 81.609 110.714 80.7192 101.385C80.0523 94.4034 78.7631 87.4795 78.4709 80.4714C78.1787 73.4649 78.9496 66.2324 82.1653 60Z" fill="#0071B7"/>
<path d="M95.4361 91.3566C97.3791 86.1079 100.237 81.2438 103.376 76.6108C103.279 85.0285 102.931 93.4758 101.445 101.761C99.956 110.047 97.2899 118.201 92.8278 125.339C92.4944 125.895 92.1609 126.452 91.8291 127.006C91.5204 114.99 91.2612 102.631 95.4361 91.3566Z" fill="#3BAEFF"/>
<path d="M71.3562 156.874C80.3976 156.874 89.439 156.874 98.4821 156.874C102.601 142.689 106.72 128.505 110.838 114.32C93.5594 114.32 76.2789 114.32 59 114.32C63.1187 128.505 67.2374 142.689 71.3562 156.874Z" fill="#0095FF"/>
<path d="M66.46 160C78.765 160 91.0716 160 103.377 160C103.377 158.576 103.377 157.153 103.377 155.73C91.07 155.73 78.765 155.73 66.46 155.73C66.46 157.155 66.46 158.577 66.46 160Z" fill="#0071B7"/>
</g>
<defs>
<clipPath id="clip0">
<rect width="450" height="180" rx="6" fill="white"/>
</clipPath>
</defs>
</svg>
