<svg width="450" height="180" viewBox="0 0 450 180" fill="none" xmlns="http://www.w3.org/2000/svg">
<g clip-path="url(#clip0)">
<path d="M450 -18H0V230H450V-18Z" fill="#E6EAFF"/>
<rect y="134" width="450" height="46" fill="#B1C3FF"/>
<path d="M368.102 111.551C367.896 111.544 367.693 111.536 367.487 111.524C367.468 111.524 367.452 111.524 367.433 111.52C360.384 111.176 353.083 108.029 347.299 102.233C341.503 96.4216 338.359 89.083 338.022 82.0006C338.012 81.7941 338.003 81.5913 338 81.3839C338.202 81.392 338.405 81.3992 338.611 81.411C345.679 81.7517 353.006 84.8981 358.802 90.7058C364.602 96.5171 367.738 103.856 368.079 110.934C368.079 110.976 368.083 111.018 368.082 111.06C368.09 111.226 368.094 111.387 368.102 111.551Z" fill="#7572FF"/>
<path d="M368.102 111.552C367.896 111.545 367.693 111.537 367.487 111.525C357.665 101.684 347.844 91.8426 338.022 82.0023C338.012 81.7958 338.003 81.593 338 81.3857C338.202 81.3938 338.405 81.401 338.611 81.4127C348.433 91.2539 358.255 101.095 368.079 110.935C368.079 110.978 368.083 111.02 368.082 111.062C368.09 111.227 368.094 111.388 368.102 111.552Z" fill="#4947D6"/>
<path d="M371.151 86.8559C371.01 86.8523 370.869 86.8442 370.723 86.8406C370.669 86.837 370.619 86.837 370.566 86.8334C365.683 86.5575 360.64 84.3677 356.637 80.3558C352.591 76.3016 350.398 71.18 350.161 66.2377C350.152 66.0926 350.15 65.9511 350.145 65.8086C350.287 65.8086 350.428 65.8167 350.574 65.8239C355.506 66.061 360.618 68.259 364.663 72.3087C368.709 76.3665 370.898 81.4891 371.135 86.4268C371.135 86.4331 371.135 86.4394 371.135 86.4457C371.143 86.5809 371.147 86.7189 371.151 86.8559Z" fill="#7572FF"/>
<path d="M371.151 86.8553C371.01 86.8517 370.869 86.8436 370.723 86.84C370.671 86.7877 370.618 86.7354 370.566 86.6831C363.764 79.8675 356.962 73.0519 350.161 66.2363C350.152 66.0911 350.15 65.9496 350.145 65.8071C350.287 65.8071 350.428 65.8152 350.574 65.8225C357.428 72.6904 364.282 79.5583 371.136 86.4262C371.136 86.4325 371.136 86.4388 371.136 86.4451C371.143 86.5803 371.147 86.7183 371.151 86.8553Z" fill="#4947D6"/>
<path d="M393.767 96.4144C393.764 96.5181 393.759 96.6208 393.752 96.7245C393.584 100.277 392.006 103.96 389.099 106.873C386.218 109.759 382.592 111.333 379.085 111.532C379.047 111.536 379.005 111.539 378.966 111.54C378.863 111.544 378.763 111.548 378.66 111.552C378.66 111.449 378.668 111.346 378.672 111.242C378.672 111.24 378.672 111.239 378.672 111.238C378.84 107.686 380.414 104.007 383.325 101.093C386.233 98.176 389.908 96.5992 393.457 96.427C393.561 96.4225 393.666 96.4189 393.767 96.4144Z" fill="#7572FF"/>
<path d="M393.768 96.4146C393.765 96.5182 393.76 96.621 393.753 96.7247C388.824 101.663 383.896 106.602 378.968 111.54C378.865 111.543 378.765 111.548 378.662 111.551C378.662 111.449 378.67 111.345 378.674 111.241C378.675 111.239 378.677 111.239 378.677 111.238C383.604 106.301 388.532 101.363 393.459 96.4263C393.562 96.4227 393.667 96.4191 393.768 96.4146Z" fill="#4947D6"/>
<path d="M400.343 70.6701C400.34 70.8387 400.332 71.0072 400.324 71.1758C400.041 77.0178 397.451 83.0743 392.672 87.8633C387.935 92.6063 381.967 95.1982 376.198 95.5201C376.137 95.5237 376.081 95.5273 376.018 95.5318C375.85 95.539 375.682 95.5471 375.515 95.5507C375.515 95.4822 375.518 95.4164 375.523 95.3479C375.526 95.2487 375.53 95.145 375.534 95.0413C375.81 89.203 378.4 83.151 383.183 78.3584C387.966 73.5658 394.007 70.9703 399.837 70.6908C400.007 70.6818 400.171 70.6737 400.343 70.6701Z" fill="#7572FF"/>
<path d="M400.343 70.6701C400.34 70.8387 400.332 71.0072 400.324 71.1758C392.222 79.2942 384.12 87.4125 376.018 95.5309C375.85 95.5381 375.682 95.5462 375.515 95.5498C375.515 95.4813 375.518 95.4155 375.523 95.347C375.526 95.2478 375.53 95.1441 375.534 95.0404C383.636 86.923 391.736 78.8065 399.837 70.689C400.007 70.6818 400.171 70.6737 400.343 70.6701Z" fill="#4947D6"/>
<path d="M376.197 95.3468C376.197 105.112 376.197 114.879 376.197 124.644C375.97 124.644 375.741 124.644 375.514 124.644C375.514 114.946 375.514 105.247 375.514 95.5496C375.514 95.4811 375.517 95.4153 375.522 95.3468C375.747 95.3468 375.972 95.3468 376.197 95.3468Z" fill="#4947D6"/>
<path d="M371.151 86.855C371.151 99.4513 371.151 112.048 371.151 124.643C370.956 124.643 370.761 124.643 370.566 124.643C370.566 111.911 370.566 99.1782 370.566 86.4448C370.756 86.4448 370.946 86.4448 371.136 86.4448C371.143 86.5801 371.146 86.718 371.151 86.855Z" fill="#4947D6"/>
<path d="M379.086 111.238C379.086 115.706 379.086 120.175 379.086 124.644C378.944 124.644 378.803 124.644 378.662 124.644C378.662 120.28 378.662 115.916 378.662 111.552C378.662 111.449 378.67 111.346 378.674 111.242C378.674 111.24 378.674 111.239 378.674 111.238C378.81 111.238 378.948 111.238 379.086 111.238Z" fill="#4947D6"/>
<path d="M368.102 111.551C368.102 115.915 368.102 120.28 368.102 124.643C367.879 124.643 367.656 124.643 367.433 124.643C367.433 120.116 367.433 115.588 367.433 111.061C367.65 111.061 367.866 111.061 368.083 111.061C368.09 111.226 368.094 111.387 368.102 111.551Z" fill="#4947D6"/>
<path d="M384.973 160.841C377.265 160.841 369.556 160.841 361.847 160.841C358.335 148.721 354.824 136.601 351.312 124.481C366.044 124.481 380.776 124.481 395.508 124.481C391.997 136.601 388.485 148.722 384.973 160.841Z" fill="#7572FF"/>
<path d="M389.147 163.513C378.655 163.513 368.164 163.513 357.673 163.513C357.673 162.297 357.673 161.081 357.673 159.864C368.165 159.864 378.656 159.864 389.147 159.864C389.147 161.08 389.147 162.297 389.147 163.513Z" fill="#4947D6"/>
<rect x="195" y="103" width="8" height="8" rx="4" fill="#DEEBFF"/>
</g>
<defs>
<clipPath id="clip0">
<rect width="450" height="180" rx="6" fill="white"/>
</clipPath>
</defs>
</svg>
