<svg width="450" height="180" viewBox="0 0 450 180" fill="none" xmlns="http://www.w3.org/2000/svg">
<g clip-path="url(#clip0)">
<path d="M450 -18H0V230H450V-18Z" fill="#E6F5FF"/>
<rect y="134" width="450" height="46" fill="#B1E2FF"/>
<path d="M85.1021 111.551C84.896 111.544 84.6936 111.536 84.4866 111.524C84.4677 111.524 84.4525 111.524 84.4327 111.52C77.3843 111.176 70.083 108.029 64.2987 102.233C58.5027 96.4214 55.3591 89.0829 55.0226 82.0004C55.0118 81.794 55.0028 81.5911 55.0001 81.3838C55.2026 81.3919 55.405 81.3991 55.611 81.4108C62.6792 81.7516 70.0065 84.898 75.8025 90.7057C81.6021 96.517 84.7386 103.856 85.0787 110.933C85.0787 110.976 85.0832 111.018 85.0823 111.06C85.0904 111.226 85.094 111.387 85.1021 111.551Z" fill="#0095FF"/>
<path d="M85.1019 111.552C84.8959 111.545 84.6934 111.537 84.4865 111.525C74.6652 101.684 64.8438 91.8427 55.0225 82.0024C55.0117 81.7959 55.0027 81.5931 55 81.3857C55.2024 81.3939 55.4049 81.4011 55.6109 81.4128C65.4332 91.254 75.2554 101.095 85.0785 110.935C85.0785 110.978 85.083 111.02 85.0821 111.062C85.0902 111.227 85.0938 111.388 85.1019 111.552Z" fill="#0071B7"/>
<path d="M88.151 86.8559C88.0098 86.8523 87.8685 86.8442 87.7228 86.8406C87.6688 86.837 87.6193 86.837 87.5662 86.8334C82.6834 86.5575 77.6396 84.3677 73.6367 80.3558C69.5907 76.3016 67.3981 71.18 67.1606 66.2377C67.1525 66.0926 67.1498 65.951 67.1453 65.8086C67.2874 65.8086 67.4278 65.8167 67.5735 65.8239C72.5058 66.061 77.618 68.259 81.6631 72.3087C85.7092 76.3665 87.8982 81.489 88.1348 86.4268C88.1348 86.4331 88.1348 86.4394 88.1348 86.4457C88.1429 86.5809 88.1465 86.7189 88.151 86.8559Z" fill="#0095FF"/>
<path d="M88.151 86.8548C88.0098 86.8512 87.8685 86.8431 87.7228 86.8395C87.6706 86.7872 87.6184 86.7349 87.5662 86.6826C80.7643 79.867 73.9624 73.0514 67.1606 66.2358C67.1525 66.0906 67.1498 65.9491 67.1453 65.8066C67.2874 65.8066 67.4278 65.8148 67.5735 65.822C74.4276 72.6899 81.2817 79.5578 88.1357 86.4257C88.1357 86.432 88.1357 86.4383 88.1357 86.4446C88.1429 86.5799 88.1465 86.7178 88.151 86.8548Z" fill="#0071B7"/>
<path d="M110.767 96.4141C110.764 96.5177 110.759 96.6205 110.752 96.7242C110.584 100.276 109.006 103.96 106.099 106.873C103.218 109.759 99.5919 111.333 96.0848 111.532C96.047 111.536 96.0048 111.539 95.9661 111.54C95.8635 111.544 95.7627 111.548 95.6602 111.552C95.6602 111.449 95.6683 111.345 95.6719 111.242C95.6719 111.24 95.6719 111.239 95.6719 111.238C95.8401 107.686 97.4137 104.007 100.325 101.093C103.233 98.1757 106.908 96.5989 110.457 96.4267C110.561 96.4222 110.666 96.4186 110.767 96.4141Z" fill="#0095FF"/>
<path d="M110.768 96.4141C110.765 96.5177 110.76 96.6205 110.753 96.7242C105.824 101.663 100.896 106.601 95.9679 111.539C95.8653 111.543 95.7646 111.547 95.662 111.551C95.662 111.448 95.6701 111.344 95.6737 111.241C95.6746 111.239 95.6764 111.238 95.6773 111.237C100.604 106.3 105.532 101.363 110.459 96.4258C110.562 96.4222 110.667 96.4186 110.768 96.4141Z" fill="#0071B7"/>
<path d="M117.343 70.6699C117.34 70.8385 117.332 71.0071 117.324 71.1757C117.041 77.0176 114.451 83.0742 109.672 87.8631C104.935 92.6061 98.9674 95.1981 93.1984 95.5199C93.1373 95.5235 93.0806 95.5271 93.0185 95.5316C92.8502 95.5388 92.682 95.5469 92.5146 95.5506C92.5146 95.482 92.5182 95.4162 92.5227 95.3477C92.5263 95.2485 92.5299 95.1449 92.5344 95.0412C92.8098 89.2028 95.4 83.1508 100.183 78.3582C104.966 73.5657 111.007 70.9701 116.837 70.6907C117.007 70.6816 117.171 70.6735 117.343 70.6699Z" fill="#0095FF"/>
<path d="M117.343 70.6699C117.34 70.8385 117.332 71.0071 117.324 71.1757C109.222 79.294 101.12 87.4124 93.0185 95.5307C92.8502 95.5379 92.682 95.546 92.5146 95.5497C92.5146 95.4811 92.5182 95.4153 92.5227 95.3468C92.5263 95.2476 92.5299 95.144 92.5344 95.0403C100.636 86.9228 108.736 78.8063 116.837 70.6889C117.007 70.6816 117.171 70.6735 117.343 70.6699Z" fill="#0071B7"/>
<path d="M93.1975 95.3467C93.1975 105.112 93.1975 114.878 93.1975 124.644C92.9698 124.644 92.7413 124.644 92.5137 124.644C92.5137 114.946 92.5137 105.247 92.5137 95.5495C92.5137 95.481 92.5173 95.4152 92.5218 95.3467C92.7467 95.3467 92.9716 95.3467 93.1975 95.3467Z" fill="#0071B7"/>
<path d="M88.151 86.8545C88.151 99.4508 88.151 112.047 88.151 124.642C87.9557 124.642 87.7614 124.642 87.5662 124.642C87.5662 111.91 87.5662 99.1776 87.5662 86.4443C87.756 86.4443 87.9458 86.4443 88.1357 86.4443C88.1429 86.5796 88.1465 86.7175 88.151 86.8545Z" fill="#0071B7"/>
<path d="M96.0858 111.237C96.0858 115.706 96.0858 120.175 96.0858 124.644C95.9445 124.644 95.8032 124.644 95.662 124.644C95.662 120.28 95.662 115.915 95.662 111.552C95.662 111.449 95.6701 111.345 95.6737 111.242C95.6737 111.24 95.6737 111.239 95.6737 111.238C95.8104 111.237 95.9481 111.237 96.0858 111.237Z" fill="#0071B7"/>
<path d="M85.1018 111.551C85.1018 115.915 85.1018 120.28 85.1018 124.643C84.8787 124.643 84.6565 124.643 84.4333 124.643C84.4333 120.116 84.4333 115.588 84.4333 111.061C84.6502 111.061 84.8661 111.061 85.0829 111.061C85.0901 111.226 85.0937 111.387 85.1018 111.551Z" fill="#0071B7"/>
<path d="M101.973 160.84C94.2647 160.84 86.5559 160.84 78.8471 160.84C75.3355 148.72 71.8239 136.601 68.3123 124.48C83.0443 124.48 97.7763 124.48 112.508 124.48C108.997 136.601 105.485 148.721 101.973 160.84Z" fill="#0095FF"/>
<path d="M106.147 163.513C95.6556 163.513 85.1639 163.513 74.6732 163.513C74.6732 162.297 74.6732 161.08 74.6732 159.863C85.1648 159.863 95.6565 159.863 106.147 159.863C106.147 161.079 106.147 162.297 106.147 163.513Z" fill="#0071B7"/>
<path d="M350.538 97.2109C349.348 98.849 349.117 101.007 349.78 102.899C350.216 104.143 350.848 105.274 351.119 106.579C351.455 108.199 350.417 109.807 349.667 111.154C349.493 111.467 349.581 111.915 349.911 112.09C350.233 112.26 350.659 112.178 350.845 111.845C351.363 110.915 351.874 109.968 352.195 108.949C352.521 107.918 352.594 106.835 352.343 105.778C352.234 105.318 352.068 104.875 351.887 104.439C351.716 104.028 351.535 103.622 351.358 103.213C351.07 102.455 350.726 101.58 350.72 100.758C350.715 100.004 350.954 99.2259 351.303 98.5623C351.425 98.3316 351.563 98.1125 351.716 97.9015C351.927 97.6112 351.776 97.1271 351.471 96.9657C351.117 96.7782 350.762 96.9008 350.538 97.2109Z" fill="white"/>
<path d="M354.928 97.2109C353.739 98.849 353.508 101.007 354.171 102.899C354.607 104.143 355.239 105.274 355.509 106.579C355.846 108.199 354.808 109.807 354.057 111.154C353.884 111.467 353.972 111.915 354.302 112.09C354.624 112.26 355.05 112.178 355.236 111.845C355.753 110.915 356.264 109.968 356.585 108.949C356.911 107.918 356.985 106.835 356.734 105.778C356.625 105.318 356.459 104.875 356.278 104.439C356.107 104.028 355.926 103.622 355.749 103.213C355.461 102.455 355.117 101.58 355.111 100.758C355.105 100.004 355.345 99.2259 355.694 98.5623C355.815 98.3316 355.954 98.1125 356.107 97.9015C356.317 97.6112 356.165 97.1271 355.862 96.9657C355.507 96.7782 355.153 96.9008 354.928 97.2109Z" fill="white"/>
<path d="M359.492 97.2109C358.303 98.849 358.072 101.007 358.735 102.899C359.171 104.143 359.803 105.274 360.074 106.579C360.41 108.199 359.372 109.807 358.622 111.154C358.447 111.467 358.536 111.915 358.866 112.09C359.187 112.26 359.614 112.178 359.8 111.845C360.317 110.915 360.829 109.968 361.15 108.949C361.475 107.918 361.549 106.835 361.298 105.778C361.188 105.318 361.023 104.875 360.842 104.439C360.671 104.028 360.49 103.622 360.313 103.213C360.025 102.455 359.681 101.58 359.675 100.758C359.67 100.004 359.909 99.2259 360.258 98.5623C360.38 98.3316 360.518 98.1125 360.671 97.9015C360.882 97.6112 360.73 97.1271 360.426 96.9657C360.072 96.7782 359.717 96.9008 359.492 97.2109Z" fill="white"/>
<path d="M368.017 127.097C368.017 125.931 368.017 124.764 368.017 123.597C371.372 123.597 374.725 123.597 378.078 123.597C380.007 123.597 381.572 125.164 381.572 127.097C381.572 132.278 381.572 137.46 381.572 142.641C381.572 143.607 381.181 144.482 380.55 145.115C379.918 145.747 379.043 146.141 378.078 146.141C374.725 146.141 371.371 146.141 368.017 146.141C368.017 144.974 368.017 143.807 368.017 142.64C371.372 142.64 374.725 142.64 378.078 142.64C378.078 137.459 378.078 132.278 378.078 127.096C374.725 127.097 371.372 127.097 368.017 127.097Z" fill="#3BAEFF"/>
<path d="M355.432 114.366C346.91 114.366 340.001 115.34 340.001 116.536C340.001 128.758 340.001 140.98 340.001 153.203C340.001 154.399 346.91 155.373 355.432 155.373C363.952 155.373 370.863 154.399 370.863 153.203C370.863 140.98 370.863 128.758 370.863 116.536C370.863 115.339 363.952 114.366 355.432 114.366Z" fill="#3BAEFF"/>
<path d="M368.413 117.71C365.667 118.31 360.878 118.707 355.43 118.707C349.982 118.707 345.193 118.31 342.448 117.71C345.194 117.11 349.982 116.713 355.43 116.713C360.879 116.713 365.668 117.11 368.413 117.71Z" fill="#005D97"/>
<path d="M355.431 118.708C346.909 118.708 340 117.734 340 116.538C340 128.76 340 140.981 340 153.204C340 154.4 346.909 155.374 355.431 155.374C363.951 155.374 370.862 154.4 370.862 153.204C370.862 140.981 370.862 128.76 370.862 116.538C370.862 117.734 363.951 118.708 355.431 118.708Z" fill="#3CAEFF"/>
<path d="M370.862 153.203C370.862 140.98 370.862 128.759 370.862 116.537C370.862 116.737 370.669 116.93 370.309 117.114C367.846 122.57 357.236 144.149 340.001 152.524C340.001 152.75 340.001 152.976 340.001 153.202C340.001 154.399 346.91 155.372 355.432 155.372C363.951 155.373 370.861 154.4 370.862 153.203Z" fill="#0095FF"/>
<path d="M239.534 162.283C226.463 162.283 213.393 162.283 200.321 162.283C201.923 152.085 203.524 141.887 205.126 131.688C214.993 131.688 224.861 131.688 234.729 131.688C236.331 141.887 237.932 152.085 239.534 162.283Z" fill="#0071B7"/>
<path d="M203.912 139.419C211.518 147.041 219.125 154.662 226.73 162.283C230.998 162.283 235.266 162.283 239.534 162.283C237.932 152.085 236.331 141.887 234.729 131.688C224.861 131.688 214.994 131.688 205.127 131.688C204.722 134.265 204.317 136.842 203.912 139.419Z" fill="#005D97"/>
<path d="M249.789 162.594C229.882 162.594 209.974 162.594 190.066 162.594C190.066 160.63 191.654 159.039 193.614 159.039C211.157 159.039 228.699 159.039 246.241 159.039C248.201 159.039 249.79 160.631 249.789 162.594Z" fill="#005D97"/>
<path d="M299.283 139.403C246.38 139.403 193.477 139.403 140.574 139.403C138.063 139.403 136.028 137.364 136.028 134.847C136.028 100.75 136.028 66.6525 136.028 32.5555C136.028 30.0393 138.063 28 140.574 28C193.477 28 246.38 28 299.283 28C301.794 28 303.829 30.0393 303.829 32.5555C303.829 66.6534 303.829 100.75 303.829 134.847C303.829 137.363 301.794 139.402 299.283 139.403Z" fill="#005D97"/>
<path fill-rule="evenodd" clip-rule="evenodd" d="M231.591 74.1974L213.198 63.8029L213.198 84.5918L231.591 74.1974ZM215.581 67.8801L226.76 74.1976L215.581 80.5152L215.581 67.8801Z" fill="#DEF3FF"/>
<path d="M136.028 124.492C136.028 127.944 136.028 131.396 136.028 134.848C136.028 137.364 138.063 139.404 140.574 139.404C193.476 139.404 246.38 139.404 299.283 139.404C301.794 139.403 303.829 137.364 303.829 134.848C303.829 131.396 303.829 127.944 303.829 124.492C247.895 124.492 191.961 124.492 136.028 124.492Z" fill="white"/>
<path d="M315.502 153.807C315.502 155.54 315.502 157.275 315.502 159.009C315.502 161.057 317.158 162.717 319.203 162.717C344.894 162.717 370.586 162.717 396.278 162.717C396.278 162.179 396.278 161.643 396.278 161.106C395.963 161.106 395.649 161.106 395.334 161.106C395.334 157.974 395.334 154.842 395.334 151.71C395.648 151.71 395.963 151.71 396.278 151.71C396.278 151.172 396.278 150.636 396.278 150.099C370.586 150.099 344.894 150.099 319.203 150.099C317.158 150.1 315.502 151.76 315.502 153.807Z" fill="#007CD5"/>
<path d="M359.366 153.806C359.366 155.539 359.366 157.274 359.366 159.008C359.365 161.056 361.021 162.716 363.066 162.716C374.136 162.716 385.207 162.716 396.278 162.716C396.278 162.178 396.278 161.642 396.278 161.105C395.963 161.105 395.649 161.105 395.334 161.105C395.334 157.973 395.334 154.841 395.334 151.709C395.648 151.709 395.963 151.709 396.278 151.709C396.278 151.171 396.278 150.635 396.278 150.098C385.208 150.098 374.137 150.098 363.066 150.098C361.021 150.099 359.366 151.759 359.366 153.806Z" fill="#005D97"/>
<path d="M363.749 161.106C374.277 161.106 384.806 161.106 395.334 161.106C395.334 157.974 395.334 154.841 395.334 151.709C384.806 151.709 374.277 151.709 363.749 151.709C362.215 151.709 360.974 152.954 360.973 154.49C360.973 155.769 360.973 157.047 360.973 158.325C360.973 159.861 362.215 161.106 363.749 161.106Z" fill="#DEF3FF"/>
<rect x="177" y="106" width="89" height="2" rx="1" fill="#0095FF"/>
<rect x="177" y="106" width="23" height="2" rx="1" fill="#8CD4FF"/>
<rect x="147" y="40" width="16" height="2" rx="1" fill="#8CD4FF"/>
<rect x="286" y="40" width="6" height="2" rx="1" fill="#8CD4FF"/>
<rect x="195" y="103" width="8" height="8" rx="4" fill="#DEF3FF"/>
</g>
<defs>
<clipPath id="clip0">
<rect width="450" height="180" rx="6" fill="white"/>
</clipPath>
</defs>
</svg>
