<svg width="450" height="180" viewBox="0 0 450 180" fill="none" xmlns="http://www.w3.org/2000/svg">
<g clip-path="url(#clip0)">
<path d="M450 -18H0V230H450V-18Z" fill="#E6F5FF"/>
<rect y="134" width="450" height="46" fill="#B1E2FF"/>
<path d="M350.538 97.2114C349.348 98.8495 349.117 101.008 349.78 102.899C350.216 104.143 350.848 105.275 351.119 106.579C351.455 108.199 350.417 109.808 349.667 111.155C349.493 111.467 349.581 111.916 349.911 112.09C350.234 112.261 350.659 112.179 350.845 111.845C351.363 110.916 351.874 109.968 352.195 108.949C352.521 107.918 352.594 106.835 352.343 105.779C352.234 105.319 352.068 104.875 351.887 104.44C351.716 104.029 351.535 103.622 351.358 103.214C351.07 102.456 350.727 101.58 350.72 100.759C350.715 100.004 350.954 99.2264 351.303 98.5628C351.425 98.332 351.563 98.113 351.716 97.902C351.927 97.6117 351.776 97.1276 351.472 96.9662C351.117 96.7787 350.763 96.9013 350.538 97.2114Z" fill="white"/>
<path d="M354.928 97.2116C353.739 98.8496 353.508 101.008 354.171 102.899C354.607 104.143 355.239 105.275 355.509 106.579C355.846 108.199 354.808 109.808 354.057 111.155C353.884 111.468 353.972 111.916 354.302 112.091C354.624 112.261 355.05 112.179 355.236 111.845C355.753 110.916 356.264 109.968 356.586 108.95C356.911 107.918 356.985 106.835 356.734 105.779C356.625 105.319 356.459 104.876 356.278 104.44C356.107 104.029 355.926 103.622 355.749 103.214C355.461 102.456 355.117 101.58 355.111 100.759C355.106 100.005 355.345 99.2265 355.694 98.563C355.815 98.3322 355.954 98.1131 356.107 97.9021C356.317 97.6118 356.165 97.1277 355.862 96.9663C355.507 96.7788 355.153 96.9014 354.928 97.2116Z" fill="white"/>
<path d="M359.492 97.2116C358.303 98.8496 358.072 101.008 358.735 102.899C359.171 104.143 359.803 105.275 360.074 106.579C360.41 108.199 359.372 109.808 358.622 111.155C358.447 111.468 358.536 111.916 358.866 112.091C359.187 112.261 359.614 112.179 359.8 111.845C360.318 110.916 360.829 109.968 361.15 108.95C361.475 107.918 361.549 106.835 361.298 105.779C361.188 105.319 361.023 104.876 360.842 104.44C360.671 104.029 360.49 103.622 360.313 103.214C360.025 102.456 359.681 101.58 359.675 100.759C359.67 100.005 359.909 99.2265 360.258 98.563C360.38 98.3322 360.518 98.1131 360.671 97.9021C360.882 97.6118 360.73 97.1277 360.426 96.9663C360.072 96.7788 359.717 96.9014 359.492 97.2116Z" fill="white"/>
<path d="M368.017 127.099C368.017 125.932 368.017 124.765 368.017 123.598C371.371 123.598 374.725 123.598 378.078 123.598C380.007 123.598 381.572 125.165 381.572 127.099C381.572 132.28 381.572 137.461 381.572 142.642C381.572 143.608 381.181 144.483 380.55 145.116C379.918 145.749 379.043 146.143 378.078 146.142C374.725 146.142 371.371 146.142 368.017 146.142C368.017 144.975 368.017 143.809 368.017 142.641C371.371 142.641 374.725 142.641 378.078 142.641C378.078 137.46 378.078 132.279 378.078 127.098C374.725 127.099 371.371 127.099 368.017 127.099Z" fill="#3BAEFF"/>
<path d="M355.432 114.367C346.91 114.367 340.001 115.341 340.001 116.537C340.001 128.759 340.001 140.981 340.001 153.203C340.001 154.4 346.91 155.373 355.432 155.373C363.952 155.373 370.863 154.4 370.863 153.203C370.863 140.981 370.863 128.759 370.863 116.537C370.863 115.34 363.952 114.367 355.432 114.367Z" fill="#3BAEFF"/>
<path d="M368.413 117.711C365.667 118.31 360.878 118.708 355.43 118.708C349.982 118.708 345.193 118.31 342.448 117.711C345.194 117.111 349.982 116.714 355.43 116.714C360.879 116.714 365.668 117.111 368.413 117.711Z" fill="#005D97"/>
<path d="M355.431 118.709C346.909 118.709 340 117.735 340 116.539C340 128.761 340 140.982 340 153.204C340 154.401 346.909 155.374 355.431 155.374C363.951 155.374 370.862 154.401 370.862 153.204C370.862 140.982 370.862 128.761 370.862 116.539C370.862 117.735 363.951 118.709 355.431 118.709Z" fill="#3CAEFF"/>
<path d="M370.862 153.203C370.862 140.981 370.862 128.76 370.862 116.538C370.862 116.738 370.669 116.931 370.309 117.115C367.846 122.571 357.236 144.149 340.001 152.524C340.001 152.751 340.001 152.977 340.001 153.202C340.001 154.399 346.91 155.372 355.432 155.372C363.952 155.373 370.861 154.4 370.862 153.203Z" fill="#0095FF"/>
<path d="M315.502 153.806C315.502 155.54 315.502 157.275 315.502 159.008C315.502 161.056 317.157 162.716 319.203 162.716C344.894 162.716 370.586 162.716 396.278 162.716C396.278 162.179 396.278 161.642 396.278 161.105C395.963 161.105 395.649 161.105 395.334 161.105C395.334 157.973 395.334 154.841 395.334 151.709C395.648 151.709 395.963 151.709 396.278 151.709C396.278 151.172 396.278 150.636 396.278 150.098C370.586 150.098 344.894 150.098 319.203 150.098C317.157 150.099 315.502 151.76 315.502 153.806Z" fill="#007CD5"/>
<path d="M359.366 153.806C359.366 155.539 359.366 157.274 359.366 159.008C359.365 161.056 361.021 162.716 363.066 162.716C374.136 162.716 385.207 162.716 396.278 162.716C396.278 162.178 396.278 161.642 396.278 161.105C395.963 161.105 395.649 161.105 395.334 161.105C395.334 157.973 395.334 154.841 395.334 151.709C395.648 151.709 395.963 151.709 396.278 151.709C396.278 151.171 396.278 150.635 396.278 150.098C385.207 150.098 374.137 150.098 363.066 150.098C361.021 150.099 359.366 151.759 359.366 153.806Z" fill="#005D97"/>
<path d="M363.749 161.106C374.277 161.106 384.806 161.106 395.334 161.106C395.334 157.974 395.334 154.841 395.334 151.709C384.806 151.709 374.277 151.709 363.749 151.709C362.215 151.709 360.974 152.954 360.973 154.49C360.973 155.768 360.973 157.047 360.973 158.325C360.973 159.861 362.215 161.106 363.749 161.106Z" fill="#DEF3FF"/>
<rect x="195" y="103" width="8" height="8" rx="4" fill="#DEF3FF"/>
</g>
<defs>
<clipPath id="clip0">
<rect width="450" height="180" rx="6" fill="white"/>
</clipPath>
</defs>
</svg>
