<svg width="120" height="28" viewBox="0 0 120 28" fill="none" xmlns="http://www.w3.org/2000/svg">
<path fill-rule="evenodd" clip-rule="evenodd" d="M84.2417 22.1646H105.031L94.6362 3.77148L84.2417 22.1646ZM88.3185 19.7816L94.636 8.60229L100.954 19.7816H88.3185Z" fill="#0095FF"/>
<path fill-rule="evenodd" clip-rule="evenodd" d="M107.995 28L110.453 22.1376L101.834 5.29907H104.394L111.633 19.3198L117.507 5.29907H120L110.486 28H107.995ZM60.5744 27.9999V5.29897H62.9606V7.42411C64.3037 5.91114 66.4673 4.9502 68.6905 4.9502C73.4927 4.9502 76.9784 8.72326 76.9784 13.9199C76.9784 19.0368 73.5983 22.6098 68.759 22.6098C66.4479 22.6098 64.357 21.7221 62.9606 20.188V27.9999L60.5744 27.9999ZM62.8573 14.1295C62.8573 17.7652 65.2983 20.3033 68.7937 20.3033C72.0987 20.3033 74.5913 17.5741 74.5913 13.9547C74.5913 10.7076 72.5351 7.25732 68.7243 7.25732C64.6933 7.25732 62.8573 10.8198 62.8573 14.1295ZM40.6862 13.7451C40.6862 8.7322 44.1896 4.9502 48.8361 4.9502C51.0416 4.9502 52.9736 5.73066 54.4224 7.20623C56.0512 8.86472 56.9377 11.25 56.9175 13.9239L56.9143 14.341H43.0724C43.1135 16.0255 43.6806 17.4775 44.7245 18.5604C45.8087 19.6847 47.343 20.3034 49.0435 20.3034C51.2344 20.3034 53.1519 19.0498 54.3039 16.862L54.5063 16.4775L56.5384 17.6661L56.352 18.0238C54.8153 20.9814 52.146 22.6098 48.8361 22.6098C44.1138 22.6098 40.6862 18.8823 40.6862 13.7451ZM43.1338 12.0336H54.4532C53.9442 9.63693 51.9122 7.25732 48.8709 7.25732C46.0927 7.25732 43.6138 9.36133 43.1338 12.0336ZM21.6226 13.745C21.6226 8.73216 25.1268 4.95015 29.7733 4.95015C31.9788 4.95015 33.9108 5.73062 35.3596 7.20618C36.9883 8.86468 37.874 11.25 37.8539 13.9239L37.8506 14.3409H24.0095C24.0499 16.0254 24.617 17.4774 25.6616 18.5603C26.7458 19.6847 28.2793 20.3034 29.9806 20.3034C32.1716 20.3034 34.0883 19.0498 35.2402 16.862L35.4427 16.4775L37.4747 17.666L37.2892 18.0238C35.7525 20.9814 33.0831 22.6098 29.7733 22.6098C25.0502 22.6098 21.6226 18.8823 21.6226 13.745ZM24.0712 12.0337H35.3914C34.8824 9.63701 32.8503 7.2574 29.8091 7.2574C27.0309 7.2574 24.5519 9.36141 24.0712 12.0337ZM79.5317 22.2668V0H81.9172V22.2668H79.5317Z" fill="#002641"/>
<path fill-rule="evenodd" clip-rule="evenodd" d="M10.3944 23.8377L20.7889 5.4444H0L10.3944 23.8377ZM16.7117 7.8277L10.3942 19.0064L4.07663 7.8277H16.7117Z" fill="#0095FF"/>
</svg>
