<svg xmlns="http://www.w3.org/2000/svg" width="36" height="36" viewBox="0 0 36 36"><defs><style>.a{fill:none;}.b{fill:#9cd15f;stroke:rgba(0,0,0,0);}</style></defs><g transform="translate(-3289 -2843)"><rect class="a" width="36" height="36" transform="translate(3289 2843)"/><path class="b" d="M11.25,23.25V19.5H9.75v3.75a1.5,1.5,0,0,1-3,0V19.5H5.25A1.5,1.5,0,0,1,3.75,18V8.25h13.5V18a1.5,1.5,0,0,1-1.5,1.5h-1.5v3.75a1.5,1.5,0,0,1-3,0ZM18,16.5V9.75a1.5,1.5,0,0,1,3,0V16.5a1.5,1.5,0,0,1-3,0Zm-18,0V9.75a1.5,1.5,0,0,1,3,0V16.5a1.5,1.5,0,0,1-3,0Zm3.75-9A6.742,6.742,0,0,1,7.083,1.686L6.11.669a.4.4,0,0,1,0-.554.363.363,0,0,1,.531,0l1.152,1.2a6.724,6.724,0,0,1,5.413,0l1.152-1.2a.363.363,0,0,1,.531,0,.4.4,0,0,1,0,.554l-.973,1.016A6.74,6.74,0,0,1,17.25,7.5ZM12,4.5a.75.75,0,1,0,.75-.75A.75.75,0,0,0,12,4.5Zm-4.5,0a.75.75,0,1,0,.75-.75A.75.75,0,0,0,7.5,4.5Z" transform="translate(3296.5 2849)"/></g></svg>