<svg xmlns="http://www.w3.org/2000/svg" width="15" height="12" viewBox="0 0 15 12"><defs><style>.a{fill:#fff;}</style></defs><path class="a" d="M1059.918,1116.087l-.027.024c-.027.025-.054.074-.082.1l-8.457,10.346c-.027.025-.027.05-.054.075h0a1.025,1.025,0,0,1-.788.37.981.981,0,0,1-.787-.37l-4.479-4.444h0a.8.8,0,0,1-.245-.593.959.959,0,0,1,1-.913,1.084,1.084,0,0,1,.571.147h0a.733.733,0,0,1,.162.123l3.53,2.766,8.24-8.42a.882.882,0,0,1,.652-.3.81.81,0,0,1,.842.765,1.137,1.137,0,0,1-.082.322Z" transform="translate(-1045 -1115)"/></svg>