<svg xmlns="http://www.w3.org/2000/svg" width="48" height="24" viewBox="0 0 48 24"><defs><style>.a{fill:none;}.b{fill:#c2c2c2;}.c{fill:#0095ff;}</style></defs><g transform="translate(-451 -384)"><g transform="translate(475 384) rotate(90)"><rect class="a" width="24" height="24" transform="translate(0 0)"/><path class="b" d="M5.2,1.067a1,1,0,0,1,1.6,0l4,5.333A1,1,0,0,1,10,8H2a1,1,0,0,1-.8-1.6Z" transform="translate(17 6) rotate(90)"/></g><g transform="translate(499 384) rotate(90)"><rect class="a" width="24" height="24" transform="translate(0 0)"/><path class="c" d="M5.2,1.067a1,1,0,0,1,1.6,0l4,5.333A1,1,0,0,1,10,8H2a1,1,0,0,1-.8-1.6Z" transform="translate(17 6) rotate(90)"/></g></g></svg>