<svg xmlns="http://www.w3.org/2000/svg" width="36" height="36" viewBox="0 0 36 36"><defs><style>.a{fill:none;}.b{fill:#787878;stroke:rgba(0,0,0,0);}</style></defs><g transform="translate(-3110 -2843)"><rect class="a" width="36" height="36" transform="translate(3110 2843)"/><path class="b" d="M2.375,20.057C.435,17.208-1.045,12,.943,8.484A5.513,5.513,0,0,1,5.611,5.606c1.457-.026,2.83,1,3.723,1s2.563-1.233,4.32-1.052a5.233,5.233,0,0,1,4.125,2.275A5.2,5.2,0,0,0,15.344,12.2a5.059,5.059,0,0,0,3.029,4.644,12.818,12.818,0,0,1-1.565,3.266c-.941,1.4-1.915,2.791-3.452,2.823-1.513.029-2-.915-3.725-.915s-2.268.885-3.7.943H5.861C4.414,22.965,3.307,21.428,2.375,20.057ZM9.155,5.293a4.876,4.876,0,0,1,1.2-3.554A5.022,5.022,0,0,1,13.677,0,5.12,5.12,0,0,1,12.5,3.667,4.162,4.162,0,0,1,9.2,5.293Z" transform="translate(3119 2848.25)"/></g></svg>