<svg xmlns="http://www.w3.org/2000/svg" width="134.997" height="30.997" viewBox="0 0 134.997 30.997"><defs><style>.a{fill:#0095ff;}.b{fill:#4d4d4d;}</style></defs><path class="a" d="M224.6,87.389l11.6-20.362H213Zm7.048-17.723L224.6,82.041l-7.048-12.375Z" transform="translate(-213.003 -61)"/><path class="a" d="M308.1,85.537H331.3L319.7,65.176Zm4.549-2.638L319.7,70.524,326.75,82.9Z" transform="translate(-213.003 -61)"/><path class="b" d="M97.479,31l2.742-6.49L90.606,5.866h2.857l8.076,15.521,6.554-15.521h2.781L100.259,31ZM43.457,31V5.866H46.12V8.219A8.726,8.726,0,0,1,52.512,5.48c5.358,0,9.247,4.177,9.247,9.93,0,5.665-3.771,9.62-9.17,9.62a8.7,8.7,0,0,1-6.469-2.681V31ZM46,15.642c0,4.025,2.723,6.835,6.623,6.835,3.687,0,6.468-3.021,6.468-7.028,0-3.595-2.294-7.414-6.546-7.414C48.053,8.034,46,11.978,46,15.642Zm-24.736-.426c0-5.549,3.909-9.736,9.093-9.736a8.55,8.55,0,0,1,6.233,2.5,10.312,10.312,0,0,1,2.784,7.437l0,.462H23.931a6.776,6.776,0,0,0,1.843,4.671,6.639,6.639,0,0,0,10.687-1.88l.226-.426,2.267,1.316-.208.4a9.09,9.09,0,0,1-8.385,5.077C25.093,25.03,21.269,20.9,21.269,15.216ZM24,13.322H36.628A6.492,6.492,0,0,0,30.4,8.034,6.6,6.6,0,0,0,24,13.322ZM0,15.216C0,9.667,3.91,5.48,9.094,5.48a8.551,8.551,0,0,1,6.233,2.5,10.311,10.311,0,0,1,2.783,7.437l0,.462H2.663a6.768,6.768,0,0,0,1.843,4.671,6.638,6.638,0,0,0,10.687-1.88l.226-.426,2.267,1.316-.207.4A9.09,9.09,0,0,1,9.094,25.03C3.824,25.03,0,20.9,0,15.216Zm2.731-1.895H15.36A6.492,6.492,0,0,0,9.132,8.034,6.606,6.606,0,0,0,2.731,13.322ZM65.723,24.65V0h2.66V24.65Z" transform="translate(24.124)"/></svg>