<svg xmlns="http://www.w3.org/2000/svg" width="80" height="40" viewBox="0 0 80 40"><defs><style>.a{fill:none;}.b{fill:#acacac;}.b,.c{fill-rule:evenodd;}.c{fill:#fff;}</style></defs><g transform="translate(-635 -290)"><g transform="translate(27)"><rect class="a" width="40" height="40" transform="translate(608 290)"/><g transform="translate(640.398 298) rotate(90)"><rect class="a" width="24" height="24" transform="translate(0 0.398)"/><path class="b" d="M13.714,12.343l-2.959-2.96a5.931,5.931,0,1,0-1.369,1.37l2.959,2.95a.953.953,0,0,0,1.348.021l.021-.021a.957.957,0,0,0,.007-1.353ZM3.105,8.753a4,4,0,1,1,2.828,1.17,4,4,0,0,1-2.828-1.17Z" transform="translate(5 19) rotate(-90)"/></g></g><g transform="translate(707.398 298) rotate(90)"><rect class="a" width="40" height="40" transform="translate(-8 32.398) rotate(-90)"/><rect class="a" width="24" height="24" transform="translate(0 0.398)"/><path class="c" d="M13.714,12.343l-2.959-2.96a5.931,5.931,0,1,0-1.369,1.37l2.959,2.95a.953.953,0,0,0,1.348.021l.021-.021a.957.957,0,0,0,.007-1.353ZM3.105,8.753a4,4,0,1,1,2.828,1.17,4,4,0,0,1-2.828-1.17Z" transform="translate(5 19) rotate(-90)"/></g></g></svg>