<svg xmlns="http://www.w3.org/2000/svg" width="120" height="60" viewBox="0 0 120 60"><defs><style>.a{fill:none;}.b{fill:#84c639;}.c{fill:#acacac;}</style></defs><g transform="translate(-497 -462)"><g transform="translate(-173 -553)"><rect class="a" width="60" height="60" transform="translate(670 1015)"/><g transform="translate(686 1029)"><path class="b" d="M851.944,626.709a1.909,1.909,0,0,0-1.944,1.86v8.372a1.946,1.946,0,0,0,3.889,0v-8.372A1.909,1.909,0,0,0,851.944,626.709Z" transform="translate(-825.889 -615.763)"/><path class="b" d="M820.944,626.711a1.908,1.908,0,0,0-1.944,1.86v8.371a1.946,1.946,0,0,0,3.889,0v-8.371A1.909,1.909,0,0,0,820.944,626.711Z" transform="translate(-819 -615.763)"/><path class="b" d="M839.056,614.173l1.345-1.31a.5.5,0,0,0,0-.714l-.022-.021a.53.53,0,0,0-.712.021l-1.593,1.552a9.92,9.92,0,0,0-7.484,0L829,612.149l-.023-.022a.529.529,0,0,0-.71.022.5.5,0,0,0,0,.714l1.345,1.311a8.6,8.6,0,0,0-4.608,7.5h18.667A8.6,8.6,0,0,0,839.056,614.173Zm-8.612,4.525a.745.745,0,1,1,.778-.744A.762.762,0,0,1,830.444,618.7Zm7.778,0a.745.745,0,1,1,.778-.744A.762.762,0,0,1,838.222,618.7Z" transform="translate(-820.333 -612)"/><path class="b" d="M825,638.9a2.037,2.037,0,0,0,2.074,1.985h2.592V645.6a1.945,1.945,0,1,0,3.89,0v-4.713h2.333V645.6a1.945,1.945,0,1,0,3.889,0v-4.714h1.814a2.038,2.038,0,0,0,2.075-1.985V626H825Z" transform="translate(-820.333 -615.581)"/></g></g><g transform="translate(-113 -553)"><rect class="a" width="60" height="60" transform="translate(670 1015)"/><g transform="translate(686 1029)"><path class="c" d="M851.944,626.709a1.909,1.909,0,0,0-1.944,1.86v8.372a1.946,1.946,0,0,0,3.889,0v-8.372A1.909,1.909,0,0,0,851.944,626.709Z" transform="translate(-825.889 -615.763)"/><path class="c" d="M820.944,626.711a1.908,1.908,0,0,0-1.944,1.86v8.371a1.946,1.946,0,0,0,3.889,0v-8.371A1.909,1.909,0,0,0,820.944,626.711Z" transform="translate(-819 -615.763)"/><path class="c" d="M839.056,614.173l1.345-1.31a.5.5,0,0,0,0-.714l-.022-.021a.53.53,0,0,0-.712.021l-1.593,1.552a9.92,9.92,0,0,0-7.484,0L829,612.149l-.023-.022a.529.529,0,0,0-.71.022.5.5,0,0,0,0,.714l1.345,1.311a8.6,8.6,0,0,0-4.608,7.5h18.667A8.6,8.6,0,0,0,839.056,614.173Zm-8.612,4.525a.745.745,0,1,1,.778-.744A.762.762,0,0,1,830.444,618.7Zm7.778,0a.745.745,0,1,1,.778-.744A.762.762,0,0,1,838.222,618.7Z" transform="translate(-820.333 -612)"/><path class="c" d="M825,638.9a2.037,2.037,0,0,0,2.074,1.985h2.592V645.6a1.945,1.945,0,1,0,3.89,0v-4.713h2.333V645.6a1.945,1.945,0,1,0,3.889,0v-4.714h1.814a2.038,2.038,0,0,0,2.075-1.985V626H825Z" transform="translate(-820.333 -615.581)"/></g></g></g></svg>