<svg xmlns="http://www.w3.org/2000/svg" width="36" height="36" viewBox="0 0 36 36"><defs><style>.a{fill:none;}.b{fill:#ff8e43;stroke:rgba(0,0,0,0);}</style></defs><g transform="translate(-3468 -2843)"><rect class="a" width="36" height="36" transform="translate(3468 2843)"/><path class="b" d="M1.5,22.078,0,4.715H16.5L15,22.069,8.236,24ZM4.011,19.1,8.25,20.326v-.012l4.22-1.207.567-6.534H5.521L5.33,10.393h7.9l.191-2.129H3.065L3.628,14.7H8.24v0h2.547l-.241,2.765-2.3.639-2.306-.636-.146-1.7H3.719Zm8.455-15.87V0h1.043V2.166h1.485V3.234Zm-1.565,0v-1.6l-.731,1.163L9.436,1.631v1.6H8.409V0h1.1l.673,1.139L10.851,0h1.1V3.234Zm-4.925,0V1.078H5.053V0h2.9V1.078H7.022V3.234Zm-2.429,0V2.156H2.592V3.234H1.537V0H2.583V1.069h.965V0H4.593V3.234Z" transform="translate(3477.75 2849)"/></g></svg>