<svg xmlns="http://www.w3.org/2000/svg" width="120" height="60" viewBox="0 0 120 60"><defs><style>.a{fill:none;}.b{fill:#ff7316;}.b,.c{stroke:rgba(0,0,0,0);}.c{fill:#acacac;}</style></defs><g transform="translate(-187 -462)"><g transform="translate(-339 -553)"><rect class="a" width="60" height="60" transform="translate(526 1015)"/><path class="b" d="M2,29.437,0,6.287H22L20,29.425,10.981,32Zm3.347-3.965L11,27.1v-.016l5.627-1.609.757-8.712H7.36l-.254-2.906H17.633l.255-2.838H4.087l.751,8.576h6.149V19.6h3.4l-.321,3.686-3.069.853-3.075-.848-.195-2.269H4.959ZM16.621,4.313V0h1.391V2.888h1.98V4.313Zm-2.086,0V2.175l-.976,1.55-.977-1.55V4.313H11.212V0h1.461l.9,1.518L14.469,0H15.93V4.313Zm-6.567,0V1.437H6.737V0H10.6V1.437H9.363V4.313Zm-3.238,0V2.875H3.456V4.313H2.049V0H3.444V1.425H4.73V0H6.124V4.313Z" transform="translate(545 1029)"/></g><g transform="translate(-279 -553)"><rect class="a" width="60" height="60" transform="translate(526 1015)"/><path class="c" d="M2,29.437,0,6.287H22L20,29.425,10.981,32Zm3.347-3.965L11,27.1v-.016l5.627-1.609.757-8.712H7.36l-.254-2.906H17.633l.255-2.838H4.087l.751,8.576h6.149V19.6h3.4l-.321,3.686-3.069.853-3.075-.848-.195-2.269H4.959ZM16.621,4.313V0h1.391V2.888h1.98V4.313Zm-2.086,0V2.175l-.976,1.55-.977-1.55V4.313H11.212V0h1.461l.9,1.518L14.469,0H15.93V4.313Zm-6.567,0V1.437H6.737V0H10.6V1.437H9.363V4.313Zm-3.238,0V2.875H3.456V4.313H2.049V0H3.444V1.425H4.73V0H6.124V4.313Z" transform="translate(545 1029)"/></g></g></svg>