<svg xmlns="http://www.w3.org/2000/svg" width="48" height="24" viewBox="0 0 48 24"><defs><style>.a{fill:none;}.b{fill:#0095ff;}.b,.c{stroke:rgba(0,0,0,0);}.c{fill:#c2c2c2;}</style></defs><g transform="translate(-283 -384)"><g transform="translate(307 384)"><rect class="a" width="24" height="24"/><path class="b" d="M0,16a2.005,2.005,0,0,1-2-2V0A2.006,2.006,0,0,1,0-2H14a2.006,2.006,0,0,1,2,2V14a2.005,2.005,0,0,1-2,2Zm0-2H14V0H0Zm3-4V8H9v2ZM3,6V4h8V6Z" transform="translate(5 5)"/></g><g transform="translate(283 384)"><rect class="a" width="24" height="24"/><path class="c" d="M0,16a2.005,2.005,0,0,1-2-2V0A2.006,2.006,0,0,1,0-2H14a2.006,2.006,0,0,1,2,2V14a2.005,2.005,0,0,1-2,2Zm0-2H14V0H0Zm3-4V8H9v2ZM3,6V4h8V6Z" transform="translate(5 5)"/></g></g></svg>