<svg xmlns="http://www.w3.org/2000/svg" width="120" height="60" viewBox="0 0 120 60"><defs><style>.a{fill:none;}.b{fill:#585858;}.b,.c{stroke:rgba(0,0,0,0);}.c{fill:#acacac;}</style></defs><g transform="translate(-342 -462)"><g transform="translate(-238 -553)"><rect class="a" width="60" height="60" transform="translate(580 1015)"/><path class="b" d="M3.232,26.2C.592,22.476-1.422,15.676,1.287,11.085A7.533,7.533,0,0,1,7.636,7.324C9.62,7.289,11.485,8.63,12.7,8.63s3.487-1.614,5.878-1.377a7.2,7.2,0,0,1,5.613,2.974,6.73,6.73,0,0,0-3.314,5.712A6.6,6.6,0,0,0,25,22.007a16.371,16.371,0,0,1-2.131,4.267c-1.28,1.827-2.607,3.647-4.7,3.684-2.058.04-2.718-1.19-5.066-1.19S10.018,29.921,8.076,30l-.1,0C6.007,30,4.5,27.993,3.232,26.2ZM12.458,6.913a6.206,6.206,0,0,1,1.631-4.64A6.927,6.927,0,0,1,18.608,0a6.513,6.513,0,0,1-1.6,4.79,5.734,5.734,0,0,1-4.481,2.124Z" transform="translate(597 1028.507)"/></g><g transform="translate(-178 -553)"><rect class="a" width="60" height="60" transform="translate(580 1015)"/><path class="c" d="M3.232,26.2C.592,22.476-1.422,15.676,1.287,11.085A7.533,7.533,0,0,1,7.636,7.324C9.62,7.289,11.485,8.63,12.7,8.63s3.487-1.614,5.878-1.377a7.2,7.2,0,0,1,5.613,2.974,6.73,6.73,0,0,0-3.314,5.712A6.6,6.6,0,0,0,25,22.007a16.371,16.371,0,0,1-2.131,4.267c-1.28,1.827-2.607,3.647-4.7,3.684-2.058.04-2.718-1.19-5.066-1.19S10.018,29.921,8.076,30l-.1,0C6.007,30,4.5,27.993,3.232,26.2ZM12.458,6.913a6.206,6.206,0,0,1,1.631-4.64A6.927,6.927,0,0,1,18.608,0a6.513,6.513,0,0,1-1.6,4.79,5.734,5.734,0,0,1-4.481,2.124Z" transform="translate(597 1028.507)"/></g></g></svg>